<svg xmlns="http://www.w3.org/2000/svg" xmlns:xlink="http://www.w3.org/1999/xlink" xmlns:inkscape="http://www.inkscape.org/namespaces/inkscape" version="1.1" width="594.95999" height="841.92" viewBox="0 0 594.95999 841.92">
<defs>
<clipPath id="clip_0">
<path transform="matrix(.24,0,0,.24,0,0)" d="M71.875 71.875H2410.4493V3437.9395H71.875Z" clip-rule="evenodd"/>
</clipPath>
<clipPath id="clip_1">
<path transform="matrix(.24,0,0,.24,0,0)" d="M71.875 71.875H2410.4493V3142.775H71.875Z" clip-rule="evenodd"/>
</clipPath>
<clipPath id="clip_2">
<path transform="matrix(.24,0,0,.24,0,0)" d="M839.6 649.2291H883.2916V692.9208H839.6Z" clip-rule="evenodd"/>
</clipPath>
<clipPath id="clip_3">
<path transform="matrix(.24,0,0,.24,0,0)" d="M71.875 71.875H2410.4493V3142.775H71.875Z" clip-rule="evenodd"/>
</clipPath>
<clipPath id="clip_4">
<path transform="matrix(.24,0,0,.24,0,0)" d="M1270.2749 649.2291H1313.9666V692.9208H1270.2749Z" clip-rule="evenodd"/>
</clipPath>
<clipPath id="clip_5">
<path transform="matrix(.24,0,0,.24,0,0)" d="M71.875 71.875H2410.4493V3142.775H71.875Z" clip-rule="evenodd"/>
</clipPath>
<clipPath id="clip_6">
<path transform="matrix(.24,0,0,.24,0,0)" d="M159.25833 774.06246H202.95V817.7541H159.25833Z" clip-rule="evenodd"/>
</clipPath>
<clipPath id="clip_7">
<path transform="matrix(.24,0,0,.24,0,0)" d="M71.875 71.875H2410.4493V3142.775H71.875Z" clip-rule="evenodd"/>
</clipPath>
<clipPath id="clip_8">
<path transform="matrix(.24,0,0,.24,0,0)" d="M1863.2333 774.06246H1906.9249V817.7541H1863.2333Z" clip-rule="evenodd"/>
</clipPath>
<clipPath id="clip_9">
<path transform="matrix(.24,0,0,.24,0,0)" d="M71.875 71.875H2410.4493V3142.775H71.875Z" clip-rule="evenodd"/>
</clipPath>
</defs>
<path transform="matrix(.74899998,0,0,.74899998,17.25,17.25)" d="M0 0H749V1079H0Z" fill="#ffffff"/>
<g clip-path="url(#clip_0)">
<path transform="matrix(.74899998,0,0,.74899998,17.25,17.25)" d="M0 0H750V984H0Z" fill="#ffffff"/>
</g>
<g clip-path="url(#clip_1)">
<path transform="matrix(.74899998,0,0,.74899998,17.25,17.25)" d="M0 0H750V22H0Z" fill="#2b2b2b"/>
<path transform="matrix(.74899998,0,0,.74899998,17.25,17.25)" d="M28 471H722V474H28Z" fill="#2b2b2b"/>
<path transform="matrix(.74899998,0,0,.74899998,17.25,17.25)" d="M28 700H722V703H28Z" fill="#2b2b2b"/>
<path transform="matrix(.74899998,0,0,.74899998,17.25,17.25)" d="M28 865H722V868H28Z" fill="#2b2b2b"/>
<text fill="#454545" xml:space="preserve" transform="matrix(.74899998 0 0 .74899998 17.25 17.25)" font-size="36" font-family="TimesNewRomanPS" font-weight="bold"><tspan y="107" x="302.48439 320.48439 338.48439 358.50038">John</tspan></text>
<text fill="#454545" xml:space="preserve" transform="matrix(.74899998 0 0 .74899998 17.25 17.25)" font-size="36" font-family="TimesNewRomanPS" font-weight="bold"><tspan y="107" x="378.53126"> </tspan></text>
<text fill="#454545" xml:space="preserve" transform="matrix(.74899998 0 0 .74899998 17.25 17.25)" font-size="36" font-family="TimesNewRomanPS" font-weight="bold"><tspan y="107" x="387.53126 413.52326 431.52326">Doe</tspan></text>
<text xml:space="preserve" transform="matrix(.74899998 0 0 .74899998 17.25 17.25)" font-size="18" font-family="TimesNewRomanPSMT"><tspan y="141" x="302.01564 312.02363 321.02363 326.02763 331.03163 335.53163 342.53364 347.53764 355.52964 363.52165 372.52165 377.02165 386.02165 394.01365 403.01365 411.00566 416.00965 425.00965 434.00965 442.00166">Full stack developer</tspan></text>
<text fill="#454545" xml:space="preserve" transform="matrix(.74899998 0 0 .74899998 17.25 17.25)" font-size="15" font-family="TimesNewRomanPSMT"><tspan y="169" x="282.9375 293.7675 301.2675 305.4375 309.6075 316.26753 323.76753 326.68507 337.51506 342.51005 349.17005 356.67005 360.42005 369.58506 381.25508 385.42509 390.42008 397.08009 401.2501 407.9101">United Arab Emirates</tspan></text>
<text fill="#454545" xml:space="preserve" transform="matrix(.74899998 0 0 .74899998 17.25 17.25)" font-size="15" font-family="TimesNewRomanPSMT"><tspan y="169" x="413.73439 417.48439">, </tspan></text>
<text fill="#454545" xml:space="preserve" transform="matrix(.74899998 0 0 .74899998 17.25 17.25)" font-size="15" font-family="TimesNewRomanPSMT"><tspan y="169" x="421.23439 429.57438 437.07438 443.73439 448.72938 452.89939 459.5594">Sharjah</tspan></text>
</g>
<g clip-path="url(#clip_2)">
<path transform="matrix(.43691663,0,0,.43691663,201.50399,155.81499)" stroke-width="2" stroke-linecap="round" stroke-linejoin="round" fill="none" stroke="#000000" d="M16 8C16.795649 8 17.561015 8.152241 18.296097 8.456722 19.03118 8.761204 19.680027 9.194749 20.24264 9.757359 20.805249 10.319968 21.238793 10.968814 21.543276 11.703897 21.847758 12.438983 21.999999 13.20435 22 14V21H18V14C17.999999 13.447715 17.804736 12.97631 17.414212 12.585786 17.023688 12.195262 16.552283 12 16 12 15.447715 12 14.976311 12.195262 14.585787 12.585787 14.195262 12.976312 14 13.447716 14 14V21H10V14C10.000001 13.20435 10.152242 12.438984 10.456723 11.703899 10.761206 10.968815 11.194751 10.319968 11.7573599 9.757359 12.319969 9.19475 12.968816 8.761205 13.703899 8.456722 14.438984 8.152241 15.20435 8 16 8Z"/>
<path transform="matrix(.43691663,0,0,.43691663,201.50399,155.81499)" stroke-width="2" stroke-linecap="round" stroke-linejoin="round" fill="none" stroke="#000000" d="M2 9H6V21H2Z"/>
<path transform="matrix(.43691663,0,0,.43691663,201.50399,155.81499)" stroke-width="2" stroke-linecap="round" stroke-linejoin="round" fill="none" stroke="#000000" d="M6 4C5.9999997 4.5522849 5.8047378 5.023689 5.414213 5.414213 5.023689 5.8047378 4.5522849 5.9999997 4 6 3.447715 5.9999997 2.9763106 5.8047378 2.5857864 5.414213 2.195262 5.023689 1.9999999 4.5522849 2 4 1.9999999 3.447715 2.195262 2.9763106 2.5857864 2.5857864 2.9763106 2.1952623 3.447715 2 4 2 4.5522849 2 5.023689 2.1952623 5.414213 2.5857864 5.8047378 2.9763106 5.9999997 3.447715 6 4Z"/>
</g>
<g clip-path="url(#clip_3)">
<text xml:space="preserve" transform="matrix(.74899998 0 0 .74899998 17.25 17.25)" font-size="14" font-family="TimesNewRomanPSMT"><tspan y="197" x="269.875 278.429 282.32099 289.32099 296.32099 302.537 309.537 313.429 320.429 323.929 330.929 335.59098 342.59098 347.25297 351.14497 355.03697">Linkedin profile</tspan></text>
<text xml:space="preserve" transform="matrix(.74899998 0 0 .74899998 17.25 17.25)" font-size="14" font-family="TimesNewRomanPSMT"><tspan y="197" x="371.25">|</tspan></text>
</g>
<g clip-path="url(#clip_4)">
<path transform="matrix(.43691663,0,0,.43691663,304.866,155.81499)" stroke-width="2" stroke-linecap="round" stroke-linejoin="round" fill="none" stroke="#000000" d="M5 3H19C19.552285 3 20.02369 3.195262 20.414214 3.585786 20.804738 3.9763106 21 4.4477155 21 5V19C21 19.552285 20.804738 20.02369 20.414214 20.414214 20.02369 20.804738 19.552285 21 19 21H5C4.4477155 21 3.9763106 20.804738 3.585786 20.414214 3.195262 20.02369 2.9999998 19.552285 3 19V5C2.9999998 4.4477155 3.195262 3.9763106 3.585786 3.585786 3.9763106 3.195262 4.4477155 3 5 3Z"/>
<path transform="matrix(.43691663,0,0,.43691663,304.866,155.81499)" stroke-width="2" stroke-linecap="round" stroke-linejoin="round" fill="none" stroke="#000000" d="M3 9H21"/>
</g>
<g clip-path="url(#clip_5)">
<text xml:space="preserve" transform="matrix(.74899998 0 0 .74899998 17.25 17.25)" font-size="14" font-family="TimesNewRomanPSMT"><tspan y="197" x="408.0625 415.8465 422.8465 427.50849 431.40049 436.06248 443.06248 446.95448 450.84648 457.84648 461.34648 471.45448 477.67048 484.67048 490.1165 494.00849 497.90049">Portfolio website</tspan></text>
</g>
<g clip-path="url(#clip_6)">
<path transform="matrix(.43691663,0,0,.43691663,38.221967,185.77503)" stroke-width="2" stroke-linecap="round" stroke-linejoin="round" fill="none" stroke="#454545" d="M22 16.92V19.92C22.001143 20.201573 21.945313 20.471356 21.83251 20.729348 21.719708 20.987339 21.559565 21.211512 21.35208 21.401865 21.144595 21.592219 20.907485 21.732499 20.640749 21.822705 20.374014 21.912913 20.100432 21.945343 19.82 21.92 16.6999 21.580977 13.823234 20.557644 11.19 18.85 8.744177 17.295823 6.7441775 15.295823 5.1899998 12.85 3.4761935 10.204493 2.4528604 7.3144929 2.1199997 4.1800005 2.0947364 3.9004362 2.126903 3.6276444 2.2165 3.3616243 2.3060969 3.0956043 2.4455188 2.8589366 2.6347657 2.6516209 2.8240126 2.4443053 3.0470212 2.2839387 3.303791 2.1705218 3.560561 2.0571049 3.8292974 2.0002642 4.11 2H7.11C7.6119329 1.9950599 8.053186 2.1562377 8.433763 2.483533 8.814339 2.810828 9.039751 3.2229839 9.110001 3.72 9.23703 4.6831476 9.470364 5.619814 9.81 6.5299999 10.110498 7.3294107 9.960498 8.032743 9.360001 8.639999L8.09 9.91C9.539981 12.460019 11.53998 14.460019 14.09 15.91L15.360001 14.639999C15.967256 14.039501 16.67059 13.889502 17.470002 14.19 18.380187 14.529636 19.316853 14.76297 20.28 14.889999 20.78278 14.960931 21.19829 15.190096 21.52653 15.577495 21.85477 15.964894 22.012595 16.412396 22 16.92Z"/>
</g>
<g clip-path="url(#clip_7)">
<text fill="#454545" xml:space="preserve" transform="matrix(.74899998 0 0 .74899998 17.25 17.25)" font-size="15" font-family="TimesNewRomanPSMT"><tspan y="237" x="48 55.5 63 70.5 78 85.5 93 100.5 108 115.5">3024490241</tspan></text>
</g>
<g clip-path="url(#clip_8)">
<path transform="matrix(.43691663,0,0,.43691663,447.17594,185.77503)" stroke-width="2" stroke-linecap="round" stroke-linejoin="round" fill="none" stroke="#454545" d="M4 4H20C20.552285 4 21.02369 4.195262 21.414214 4.5857865 21.804738 4.9763109 22 5.4477155 22 6V18C22 18.552285 21.804738 19.02369 21.414214 19.414214 21.02369 19.804738 20.552285 19.999999 20 20H4C3.447715 19.999999 2.9763106 19.804738 2.5857864 19.414214 2.195262 19.02369 1.9999999 18.552285 2 18V6C1.9999999 5.4477155 2.195262 4.9763109 2.5857864 4.5857865 2.9763106 4.195262 3.447715 4 4 4Z"/>
<path transform="matrix(.43691663,0,0,.43691663,447.17594,185.77503)" stroke-width="2" stroke-linecap="round" stroke-linejoin="round" fill="none" stroke="#454545" d="M22 7 13.03 12.7C12.343332 13.130214 11.656666 13.130214 10.969999 12.7L2 7"/>
</g>
<g clip-path="url(#clip_9)">
<text fill="#454545" xml:space="preserve" transform="matrix(.74899998 0 0 .74899998 17.25 17.25)" font-size="15" font-family="TimesNewRomanPSMT"><tspan y="237" x="594.4531 600.28817 607.78817 615.28817 622.78817 630.28817 637.78817 644.4481 658.2631 665.7631 677.4331 684.0931 688.26309 692.43307 696.18307 702.843 710.343">Johndoe@gmail.com</tspan></text>
<path transform="matrix(.74899998,0,0,.74899998,17.25,17.25)" d="M28 253H722V256H28Z" fill="#2b2b2b"/>
<text xml:space="preserve" transform="matrix(.74899998 0 0 .74899998 17.25 17.25)" font-size="14" font-family="TimesNewRomanPSMT"><tspan y="279" x="28 36.554 42.77 49.77 56.77 63.77 69.986 76.986 83.202 88.648 92.54">Languages: </tspan></text>
<text xml:space="preserve" transform="matrix(.74899998 0 0 .74899998 17.25 17.25)" font-size="14" font-family="TimesNewRomanPS" font-weight="bold"><tspan y="279" x="96.03125 106.13925 112.355258 119.355258 127.13926 131.03127 137.24727 140.74727 144.24727 153.58527 161.36927 168.36927 172.26126 176.15326 181.59926">Arabic, English</tspan></text>
<text xml:space="preserve" transform="matrix(.74899998 0 0 .74899998 17.25 17.25)" font-size="14" font-family="TimesNewRomanPSMT"><tspan y="301" x="28 35.57422 41.79022 48.006219 55.006219 62.006219 69.00622 72.89822 79.89822 86.89822 90.790218 97.00622 102.45222 106.344219">Technologies: </tspan></text>
<text xml:space="preserve" transform="matrix(.74899998 0 0 .74899998 17.25 17.25)" font-size="14" font-family="TimesNewRomanPS" font-weight="bold"><tspan y="301" x="109.84375 118.39775 125.39775 130.05976 137.84375 144.84375 152.62775 156.12775 159.62775 166.62775 173.62775 180.62775 187.62775 195.41175 201.62775 207.84375 211.73575 219.51975 224.18175 227.68175 231.18175 241.28975 247.50576 254.50576 260.72175 265.38374 272.38374">Python, JavaScript, ReactJS</tspan></text>
<text xml:space="preserve" transform="matrix(.74899998 0 0 .74899998 17.25 17.25)" font-size="14" font-family="TimesNewRomanPSMT"><tspan y="324" x="28 33.446 40.446 47.446 54.446 57.946 68.054 75.054 81.270008 84.770008 88.662 94.108 97.608 103.824008 107.324008 114.324008 118.216 125.216 132.216 136.108 143.108 146.608 152.054 159.054 162.946 166.838 170.73 176.946 183.946 187.446 192.108 199.108 203 206.892 210.392 215.838 219.73 225.946 232.162 239.162 242.662 249.662 255.878 262.878 269.094 272.986 279.986 286.986 293.202 297.86399 301.36399 308.36399 314.58 320.026 326.242 333.242 336.742 340.634 347.634 351.134 358.918 365.918 372.134 376.796 380.688 386.904 393.904 397.404 400.904 411.012 421.12 429.67399 433.17399 436.67399 446.78199 450.67399 454.56599 461.56599 465.06599 471.28199 478.28199 485.28199 491.498 496.15998 500.05198 503.94398 509.38999 515.60598 519.10598 522.998 529.998 533.498 540.498 546.714 552.16 556.052 563.052 570.052 573.94406 580.94406 587.94406 591.44406 594.94406 601.94406 608.16006 615.16006 621.37606 625.26809 632.26809 639.26809 643.1601 650.1601 657.1601 660.6601 664.1601 670.3761 677.3761">John Doe is a highly skilled full stack developer based in Sharjah, UAE, with expertise in designing, developing, and</tspan></text>
<text xml:space="preserve" transform="matrix(.74899998 0 0 .74899998 17.25 17.25)" font-size="14" font-family="TimesNewRomanPSMT"><tspan y="346" x="28 31.892 42.784 49.784 53.676004 59.892004 70.784008 77.00001 84.00001 87.892009 91.784008 98.784008 105.784008 109.284008 113.94601 120.94601 127.94601 134.94602 140.39202 144.28401 147.78401 157.89202 164.10802 171.10802 174.60802 180.82402 187.82402 194.82402 198.71602 202.60802 208.82402 215.04003 218.93202 222.82402 229.82402 236.82402 242.27002 245.77002 249.27002 257.05403 261.716 268.716 275.716 281.932 288.932 292.432 298.648 305.648 309.54 313.432 317.324 321.216 328.216 331.716 335.608 342.608 346.108 356.216 363.216 367.878 374.878 378.378 384.594 390.81 395.472 402.472 407.918 413.364 416.864 420.756 427.756 433.97203 437.47203 443.68803 450.68803 454.58003 458.47203 463.134 469.35 472.85 478.29603 485.29603 489.958 493.85 503.958 510.174 514.836 521.052 524.552 531.552 537.768 544.768 550.984 554.87606 561.87606 568.87606 579.76809 585.9841 592.9841 596.8761 600.3761 604.2681 608.16018 612.82217 619.03817 625.25418 632.25418 638.47018 642.3622 648.5782 652.0782 655.5782 659.4702 665.6862 672.6862 678.9022 683.5642 689.7802 696.7802 700.67227 707.67227">implementing robust web applications. Proven ability to work across the entire software development lifecycle, leveraging</tspan></text>
<text xml:space="preserve" transform="matrix(.74899998 0 0 .74899998 17.25 17.25)" font-size="14" font-family="TimesNewRomanPSMT"><tspan y="369" x="28 35 39.662 46.662 51.323999 55.216 61.432 65.324 71.54 78.54 84.756008 91.756008 95.256008 99.148 106.148 109.648 116.648 123.648 127.54 134.54001 138.04001 142.70201 147.36402 154.36402 161.36402 165.25601 169.91802 176.13402 183.13402 190.13402 193.63402 199.85002 206.85002 213.85002 217.35002 224.35002 230.56603 236.78203 243.78203 248.44403 254.66004 261.66004 268.66004 272.16004 276.05204 282.26805 288.48405 295.48405 302.48405 309.48405 313.37605 320.37605 327.37605 331.26805 337.48405 342.93006 346.43006 349.11817 358.45606 361.95606 368.95606 375.17207 382.17207 386.06407 392.28007 398.49607 402.38807 408.60408 415.60408 419.10408 425.32008 432.32008 439.32008 442.82008 447.48207 453.69807 459.14408 466.14408 470.03608 473.92808 479.37409 484.03608 491.03608 495.69807 499.59007 505.80607 512.806 516.69808 522.91409 529.91409 533.41409 540.41409 545.07608 552.07608 556.73806 562.95407 568.4 573.846 577.73806 584.73806 591.73806 597.95407 601.84609 605.34609 610.00808 617.00808 623.22409 630.22409 635.67007 641.88607 648.88607 652.38607 659.38607">proficiency in both front-end and back-end technologies. A dedicated and results-oriented professional focused on</tspan></text>
<text xml:space="preserve" transform="matrix(.74899998 0 0 .74899998 17.25 17.25)" font-size="14" font-family="TimesNewRomanPSMT"><tspan y="391" x="28 35 41.216 45.108 49.000005 56.000005 62.216005 66.878009 70.770008 77.770008 84.770008 88.270008 92.162 99.162 106.162 113.162 120.162 126.378009 130.27 134.162 141.162 147.378 150.878 157.09401 164.09401 171.09401 174.59401 180.81002 185.19239 189.85439 193.74639 199.96239 203.85439 210.07039 217.07039 220.96239 224.46239 229.90839 236.90839 240.80039 247.80039 251.69239 255.58438 262.58439 269.58439 275.0304">delivering innovative and efficient solutions.</tspan></text>
<text fill="#454545" xml:space="preserve" transform="matrix(.74899998 0 0 .74899998 17.25 17.25)" font-size="18" font-family="TimesNewRomanPS" font-weight="bold"><tspan y="453" x="282.92189 293.91987 301.58106 310.58106 316.57505 324.56706 331.56907 338.57109 343.57508 352.57508 362.58308 371.58308 376.58708 381.08708 393.09309 402.09309 412.10108 420.09309 428.08509 433.08909 441.0811 451.08909 459.0811">Professional Experience</tspan></text>
<text xml:space="preserve" transform="matrix(.74899998 0 0 .74899998 17.25 17.25)" font-size="15" font-family="TimesNewRomanPS" font-weight="bold"><tspan y="503" x="28 38.83 47.170003 54.670003 61.33 67.990009 72.98501 77.15501 82.990009 87.16 95.50001 103.00001 106.75001 120.91001 128.41 136.75 144.25 151.75 158.41">Advertising Manager</tspan></text>
<text xml:space="preserve" transform="matrix(.74899998 0 0 .74899998 17.25 17.25)" font-size="15" font-family="TimesNewRomanPS" font-weight="bold"><tspan y="503" x="163.70313 167.45313 171.20313 180.38037 187.88037 194.54038 198.29038 209.12038 213.29038 220.79038 225.78537 234.12537 238.29537 246.63536">, Lyc Clothing</tspan></text>
<text xml:space="preserve" transform="matrix(.74899998 0 0 .74899998 17.25 17.25)" font-size="14" font-family="TimesNewRomanPSMT"><tspan y="503" x="557.6719 564.6719 571.6719 575.1719 587.61788 593.83389 598.49588 601.99588 608.99588 615.99588 622.99588">06 Mar 2024</tspan></text>
<text fill="#0a0a0a" xml:space="preserve" transform="matrix(.74899998 0 0 .74899998 17.25 17.25)" font-size="16" font-family="TimesNewRomanPSMT"><tspan y="503" x="636">-</tspan></text>
<text xml:space="preserve" transform="matrix(.74899998 0 0 .74899998 17.25 17.25)" font-size="14" font-family="TimesNewRomanPSMT"><tspan y="503" x="647.3281 654.3281 661.3281 664.8281 677.2741 683.4901 690.4901 693.9901 700.9901 707.9901 714.9901">07 May 2025</tspan></text>
<text fill="#0a0a0a" xml:space="preserve" transform="matrix(.74899998 0 0 .74899998 17.25 17.25)" font-size="15" font-family="TimesNewRomanPS" font-style="italic"><tspan y="527" x="28 38.83 46.33 50.500005 54.670007 61.330007 68.83 72.58 80.08 84.25 91.75 95.92 102.58">United States</tspan></text>
<text fill="#0a0a0a" xml:space="preserve" transform="matrix(.74899998 0 0 .74899998 17.25 17.25)" font-size="15" font-family="TimesNewRomanPS" font-style="italic"><tspan y="527" x="108.40625 112.15625 115.90625 127.024417 134.52442 140.35942 147.85942 152.02942 159.52942 167.02942 171.19942 178.69942">, Washington</tspan></text>
<text xml:space="preserve" transform="matrix(.74899998 0 0 .74899998 17.25 17.25)" font-size="14" font-family="TimesNewRomanPSMT"><tspan y="558" x="28 35.57422 41.79022 48.006219 55.006219 62.006219 69.00622 72.89822 79.89822 86.89822 90.790218 97.00622 102.45222 105.95222 112.95222 118.39822 124.61422 131.61423 135.50623">Technologies used: </tspan></text>
<text xml:space="preserve" transform="matrix(.74899998 0 0 .74899998 17.25 17.25)" font-size="14" font-family="TimesNewRomanPS" font-weight="bold"><tspan y="558" x="139 149.108 155.324 162.324 168.54001 173.20201 176.70201 183.70201 191.48601 194.98601 198.48601 208.59401 215.59401 223.378 229.59401 234.25601 239.70201 243.20201 246.70201 259.918 266.918 274.702 281.702 288.702 298.81 308.148 311.648 315.148 324.48603 331.48603 339.27003 345.24024 351.45625 356.90226 362.34828 365.84828 372.84828 380.63227 384.13227 387.63227 400.84828 407.84828 415.63227 422.63227 429.63227 436.63227 442.07829 448.29429 451.79429 455.29429 462.29429 470.07829 477.86228 480.59864 490.70664 496.66993 502.88594 507.5479 513.7639">React JS, Nodejs, MongoDB, Express JS, Mongoose, and Arcjet</tspan></text>
<text xml:space="preserve" transform="matrix(.74899998 0 0 .74899998 17.25 17.25)" font-size="14" font-family="TimesNewRomanPSMT"><tspan y="579" x="28 40.446 46.662 53.662 59.878 66.878 73.094 80.094 83.594 89.810009 96.810009 103.810009 110.02601 114.68801 118.58001 122.47201 127.91801 131.81002 138.81002 145.81002 149.31002 155.52602 161.74202 172.63402 179.63402 185.85002 189.74202 196.74202 203.74202 209.18802 212.68802 217.35002 224.35002 229.01203 232.51203 240.26953 247.26953 253.48554 256.98554 266.32356 270.21556 277.21556 281.10755 288.10755 291.99955 298.99955 305.99955 309.49955 312.99955 319.99955 324.66154 328.55354 335.55354 339.44554 346.44554 353.44554 356.94554 363.16154 366.66154 373.66154 385.32353 388.82353 392.7155 399.7155 405.93153 410.5935 416.8095 423.0255 428.47154 434.68754 438.18754 442.07954 449.07954 452.57954 459.57954 466.57954 470.47154 474.36354 481.36354 487.57954 491.07954 496.52555 502.74156 506.63356 512.84957 518.29556 521.79556 525.68759 532.68759 537.34957 544.34957 551.34957 558.34957 565.34957 568.84957 574.29556 578.18759 582.84957 589.06558 592.9576 599.1736 606.1736 610.0656 616.2816 619.7816 630.67367 636.88967 643.88967 647.7817 653.9977 657.4977 664.4977 668.3897 674.6057 681.6057 688.6057 692.49777 699.49777">Managed advertising campaigns for Lyc Clothing, driving a 3% increase in online sales through strategic media planning</tspan></text>
<text xml:space="preserve" transform="matrix(.74899998 0 0 .74899998 17.25 17.25)" font-size="14" font-family="TimesNewRomanPSMT"><tspan y="600" x="28 34.216 41.216 48.216 51.716 57.932 64.932 71.148 77.364009 84.364009 88.256008 92.148 99.148 106.148 109.648 113.148 123.256008 129.472 136.472 142.688 146.58 153.58 160.58 166.796 173.796 177.296 183.51201 190.51201 197.51201 201.01201 204.904 215.796 222.796 226.688 232.904 243.796 250.01201 257.01203 260.90403 267.12004 274.12004 277.62004 281.51203 288.51203 295.51203 302.51203 309.51203 315.72804 319.62004 323.51203 330.51203 336.72804 340.22804 351.12004 357.33604 361.99803 368.99803 375.21403 379.10603 382.99803 389.99803 396.99803 400.49803 405.94404 409.83604 414.49803 420.71403 424.60603 430.82203 437.82203 441.71403 447.93003 453.37605 456.87605 463.09205 469.30805 473.97004 480.97004 486.41606 491.86207 495.36207 502.36207 508.57807 513.24008 517.1321 524.1321 531.1321 536.57809 540.07809 546.29409 553.29409 559.5101 566.5101 573.5101 579.7261 583.6181 589.0641 592.5641 596.0641 599.9561 606.9561 613.1721 617.06417 624.06417 631.06417 634.9562 641.9562 648.9562 652.4562 659.4562 663.3482 670.3482 674.24026 678.13229 684.34829 688.2403">and execution. Developed and implemented innovative marketing strategies across various channels, including digital,</tspan></text>
<text xml:space="preserve" transform="matrix(.74899998 0 0 .74899998 17.25 17.25)" font-size="14" font-family="TimesNewRomanPSMT"><tspan y="621" x="28 35 39.662 43.554 50.554 54.446004 57.946004 61.446004 67.662 74.662 81.662 85.162 90.608 97.608 103.824008 107.716 113.93201 117.824008 121.324008 132.216 138.432 145.432 149.324 155.54001 159.04001 162.54001 166.432 173.432 176.932 183.14801 190.14801 197.14801 203.36402 210.36402 216.58002 222.79602 226.29602 233.29602 237.95803 244.17403 251.17403 258.174 261.674 268.674 272.566 278.01203 281.90403 288.90403 292.79603 296.68803 300.58003 304.47203 311.47203 314.97203 321.18803 328.18803 335.18803 338.68803 344.90403 351.90403 358.90403 365.12004 372.12004 378.33604 389.22804 395.44404 402.44404 406.33604 409.83604 413.72804 420.72804 424.22804 428.12004 435.12004 441.33604 444.51368 456.60646 462.82246 468.26847 475.26847 479.16047 486.16047 493.16047 497.05247 504.05247 511.05247 514.5525 525.4445 531.6605 536.3225 543.3225 549.5385 553.43057">print, and social media, to enhance brand visibility and engagement in the Washington market.</tspan></text>
<text fill="#454545" xml:space="preserve" transform="matrix(.74899998 0 0 .74899998 17.25 17.25)" font-size="18" font-family="TimesNewRomanPS" font-weight="bold"><tspan y="682" x="279.01564 291.02165 301.02964 311.03764 319.02964 328.02964 334.02363 339.02763 348.02763 358.0356 362.5356 377.5296 382.0296 395.0256 403.0176 411.0096 417.0036 422.0076 428.0016 433.00559 440.9976 449.9976 455.99159 463.98359">Education &#x0026; Certificates</tspan></text>
<text fill="#454545" xml:space="preserve" transform="matrix(.74899998 0 0 .74899998 17.25 17.25)" font-size="15" font-family="TimesNewRomanPS" font-weight="bold"><tspan y="732" x="28 38.005 45.505 52.165 60.505 67.165 71.335 78.835 85.495 89.665 95.5 99.25 110.08 116.740009 124.240009 130.61963 137.27964">Bachelor's Degree</tspan></text>
<text fill="#454545" xml:space="preserve" transform="matrix(.74899998 0 0 .74899998 17.25 17.25)" font-size="15" font-family="TimesNewRomanPS" font-weight="bold"><tspan y="732" x="143.9375 147.6875 151.4375 162.2675 169.7675 182.2625 190.6025 198.94249 203.93749 210.59749 216.98926 220.73926 229.07926 235.73926 239.90926 246.56926 254.90926 261.56925">, Computer Science</tspan></text>
<text xml:space="preserve" transform="matrix(.74899998 0 0 .74899998 17.25 17.25)" font-size="14" font-family="TimesNewRomanPSMT"><tspan y="731" x="556.875 563.875 570.875 574.375 584.483 591.483 598.483 601.983 608.983 615.983 622.983">07 Nov 2022</tspan></text>
<text fill="#0a0a0a" xml:space="preserve" transform="matrix(.74899998 0 0 .74899998 17.25 17.25)" font-size="16" font-family="TimesNewRomanPSMT"><tspan y="732" x="636">-</tspan></text>
<text xml:space="preserve" transform="matrix(.74899998 0 0 .74899998 17.25 17.25)" font-size="14" font-family="TimesNewRomanPSMT"><tspan y="731" x="647.3281 654.3281 661.3281 664.8281 677.2741 683.4901 690.4901 693.9901 700.9901 707.9901 714.9901">22 May 2025</tspan></text>
<text xml:space="preserve" transform="matrix(.74899998 0 0 .74899998 17.25 17.25)" font-size="15" font-family="TimesNewRomanPS" font-style="italic"><tspan y="756" x="28 35.5 39.670003 47.170003 54.670003 62.170003 66.340007 73.840007 79.11572 86.61572 90.36572 97.86572 105.36572 109.53572 116.195728 122.85573 128.69074 134.52574 138.69574">Standford universty</tspan></text>
<text xml:space="preserve" transform="matrix(.74899998 0 0 .74899998 17.25 17.25)" font-size="14" font-family="TimesNewRomanPSMT"><tspan y="786" x="28 38.108 42.77 48.986 55.986 62.986 69.202 73.094 79.310009 86.310009 89.810009 99.91801 103.810009 107.702 114.702 118.202 124.41801 127.91801 134.134 140.35 145.01201 148.904 152.796 157.45801 161.35 167.56601 173.78202 177.67401 183.89002 187.39002 194.39002 199.05202 202.55202 209.55202 216.55202 223.55202 230.55202 235.21402 238.71402 249.60602 253.10602 259.32203 262.82203 272.93003 279.39845 288.73634 292.23634 299.23634 303.89833 307.39833 314.39833 317.89833 324.89833">Graduated with a certificate of honor &#x0026; a GPA of 3.65</tspan></text>
<text fill="#454545" xml:space="preserve" transform="matrix(.74899998 0 0 .74899998 17.25 17.25)" font-size="18" font-family="TimesNewRomanPS" font-weight="bold"><tspan y="847" x="288.5 298.508 308.516 313.52 318.524 323.52799 330.53 335.03 350.024 354.524 367.52 376.52 391.51399 401.52198 409.51399 415.50798 423.49998 433.50798 441.49998 446.50398 454.49598">Skills &#x0026; Competencies</tspan></text>
<text xml:space="preserve" transform="matrix(.74899998 0 0 .74899998 17.25 17.25)" font-size="16" font-family="TimesNewRomanPSMT"><tspan y="909" x="28 38.672 45.776 52.88 59.984 64.432 70.656">ReactJS</tspan></text>
<text xml:space="preserve" transform="matrix(.74899998 0 0 .74899998 17.25 17.25)" font-size="16" font-family="TimesNewRomanPSMT"><tspan y="909" x="385 391.224 398.328 406.328 413.432 422.328 429.432 434.76 439.208 447.208">JavaScript</tspan></text>
<text xml:space="preserve" transform="matrix(.74899998 0 0 .74899998 17.25 17.25)" font-size="16" font-family="TimesNewRomanPSMT"><tspan y="953" x="28 42.224 50.224 58.224 66.224 74.224 82.224">Mongodb</tspan></text>
<text xml:space="preserve" transform="matrix(.74899998 0 0 .74899998 17.25 17.25)" font-size="16" font-family="TimesNewRomanPSMT"><tspan y="953" x="385 396.552 404.552 412.552 419.656 425.88">NodeJS</tspan></text>
<path transform="matrix(.74899998,0,0,.74899998,17.25,17.25)" d="M215 897H365V912H215Z" fill="#f5f5f5"/>
<path transform="matrix(.74899998,0,0,.74899998,17.25,17.25)" d="M215 897H365V912H215Z" fill="#454545"/>
<path transform="matrix(.74899998,0,0,.74899998,17.25,17.25)" d="M572 897H722V912H572Z" fill="#f5f5f5"/>
<path transform="matrix(.74899998,0,0,.74899998,17.25,17.25)" d="M572 897H722V912H572Z" fill="#454545"/>
<path transform="matrix(.74899998,0,0,.74899998,17.25,17.25)" d="M215 941H365V956H215Z" fill="#f5f5f5"/>
<path transform="matrix(.74899998,0,0,.74899998,17.25,17.25)" d="M215 941H335V956H215Z" fill="#454545"/>
<path transform="matrix(.74899998,0,0,.74899998,17.25,17.25)" d="M572 941H722V956H572Z" fill="#f5f5f5"/>
<path transform="matrix(.74899998,0,0,.74899998,17.25,17.25)" d="M572 941H662V956H572Z" fill="#454545"/>
</g>
</svg>
