<svg xmlns="http://www.w3.org/2000/svg" xmlns:xlink="http://www.w3.org/1999/xlink" xmlns:inkscape="http://www.inkscape.org/namespaces/inkscape" version="1.1" width="594.95999" height="841.92" viewBox="0 0 594.95999 841.92">
<defs>
<clipPath id="clip_0">
<path transform="matrix(.24,0,0,.24,0,0)" d="M71.875 71.875H2410.4493V3437.9395H71.875Z" clip-rule="evenodd"/>
</clipPath>
<clipPath id="clip_1">
<path transform="matrix(.24,0,0,.24,0,0)" d="M71.875 71.875H2410.4493V3370.5958H71.875Z" clip-rule="evenodd"/>
</clipPath>
<clipPath id="clip_2">
<path transform="matrix(.24,0,0,.24,0,0)" d="M159.25833 555.6041H206.07083V602.4166H159.25833Z" clip-rule="evenodd"/>
</clipPath>
<clipPath id="clip_3">
<path transform="matrix(.24,0,0,.24,0,0)" d="M71.875 71.875H2410.4493V3370.5958H71.875Z" clip-rule="evenodd"/>
</clipPath>
<clipPath id="clip_4">
<path transform="matrix(.24,0,0,.24,0,0)" d="M1164.1666 555.6041H1210.9791V602.4166H1164.1666Z" clip-rule="evenodd"/>
</clipPath>
<clipPath id="clip_5">
<path transform="matrix(.24,0,0,.24,0,0)" d="M71.875 71.875H2410.4493V3370.5958H71.875Z" clip-rule="evenodd"/>
</clipPath>
<clipPath id="clip_6">
<path transform="matrix(.24,0,0,.24,0,0)" d="M2091.0543 555.6041H2137.8668V602.4166H2091.0543Z" clip-rule="evenodd"/>
</clipPath>
<clipPath id="clip_7">
<path transform="matrix(.24,0,0,.24,0,0)" d="M71.875 71.875H2410.4493V3370.5958H71.875Z" clip-rule="evenodd"/>
</clipPath>
</defs>
<path transform="matrix(.74899998,0,0,.74899998,17.25,17.25)" d="M0 0H749V1079H0Z" fill="#ffffff"/>
<g clip-path="url(#clip_0)">
<path transform="matrix(.74899998,0,0,.74899998,17.25,17.25)" d="M0 0H750V1057H0Z" fill="#ffffff"/>
</g>
<g clip-path="url(#clip_1)">
<text fill="#454545" xml:space="preserve" transform="matrix(.74899998 0 0 .74899998 17.25 17.25)" font-size="36" font-family="TimesNewRomanPS" font-weight="bold"><tspan y="67" x="28 46 64 84.01601">John</tspan></text>
<text fill="#454545" xml:space="preserve" transform="matrix(.74899998 0 0 .74899998 17.25 17.25)" font-size="36" font-family="TimesNewRomanPS" font-weight="bold"><tspan y="67" x="104.046878"> </tspan></text>
<text fill="#454545" xml:space="preserve" transform="matrix(.74899998 0 0 .74899998 17.25 17.25)" font-size="36" font-family="TimesNewRomanPS" font-weight="bold"><tspan y="67" x="113.046878 139.03888 157.03888">Doe</tspan></text>
<text xml:space="preserve" transform="matrix(.74899998 0 0 .74899998 17.25 17.25)" font-size="18" font-family="TimesNewRomanPSMT"><tspan y="101" x="28 38.008005 47.008005 52.012006 57.016008 61.516008 68.518009 73.522 81.51401 89.50601 98.50601 103.00601 112.00601 119.99802 128.99802 136.99002 141.99402 150.99402 159.99402 167.98603">Full stack developer</tspan></text>
<text fill="#454545" xml:space="preserve" transform="matrix(.74899998 0 0 .74899998 17.25 17.25)" font-size="15" font-family="TimesNewRomanPSMT"><tspan y="133" x="28 38.83 46.33 50.500005 54.670007 61.330007 68.83 71.74756 82.57756 87.57256 94.23257 101.73257 105.48257 114.64757 126.317569 130.48757 135.48256 142.14257 146.31256 152.97257">United Arab Emirates</tspan></text>
<text fill="#454545" xml:space="preserve" transform="matrix(.74899998 0 0 .74899998 17.25 17.25)" font-size="15" font-family="TimesNewRomanPSMT"><tspan y="133" x="158.79688 162.54688">, </tspan></text>
<text fill="#454545" xml:space="preserve" transform="matrix(.74899998 0 0 .74899998 17.25 17.25)" font-size="15" font-family="TimesNewRomanPSMT"><tspan y="133" x="166.29688 174.63687 182.13687 188.79688 193.79187 197.96187 204.62187">Sharjah</tspan></text>
<text fill="#454545" xml:space="preserve" transform="matrix(.74899998 0 0 .74899998 17.25 17.25)" font-size="15" font-family="TimesNewRomanPSMT"><tspan y="133" x="594.4531 600.28817 607.78817 615.28817 622.78817 630.28817 637.78817 644.4481 658.2631 665.7631 677.4331 684.0931 688.26309 692.43307 696.18307 702.843 710.343">Johndoe@gmail.com</tspan></text>
</g>
<g clip-path="url(#clip_2)">
<path transform="matrix(.46812497,0,0,.46812497,38.221967,133.34502)" stroke-width="2" stroke-linecap="round" stroke-linejoin="round" fill="none" stroke="#454545" d="M22 16.92V19.92C22.001143 20.201573 21.945313 20.471356 21.83251 20.729348 21.719708 20.987339 21.559565 21.211512 21.35208 21.401865 21.144595 21.592219 20.907485 21.732499 20.640749 21.822705 20.374014 21.912913 20.100432 21.945343 19.82 21.92 16.6999 21.580977 13.823234 20.557644 11.19 18.85 8.744177 17.295823 6.7441775 15.295823 5.1899998 12.85 3.4761935 10.204493 2.4528604 7.3144929 2.1199997 4.1800005 2.0947364 3.9004362 2.126903 3.6276444 2.2165 3.3616243 2.3060969 3.0956043 2.4455188 2.8589366 2.6347657 2.6516209 2.8240126 2.4443053 3.0470212 2.2839387 3.303791 2.1705218 3.560561 2.0571049 3.8292974 2.0002642 4.11 2H7.11C7.6119329 1.9950599 8.053186 2.1562377 8.433763 2.483533 8.814339 2.810828 9.039751 3.2229839 9.110001 3.72 9.23703 4.6831476 9.470364 5.619814 9.81 6.5299999 10.110498 7.3294107 9.960498 8.032743 9.360001 8.639999L8.09 9.91C9.539981 12.460019 11.53998 14.460019 14.09 15.91L15.360001 14.639999C15.967256 14.039501 16.67059 13.889502 17.470002 14.19 18.380187 14.529636 19.316853 14.76297 20.28 14.889999 20.78278 14.960931 21.19829 15.190096 21.52653 15.577495 21.85477 15.964894 22.012595 16.412396 22 16.92Z"/>
</g>
<g clip-path="url(#clip_3)">
<text fill="#454545" xml:space="preserve" transform="matrix(.74899998 0 0 .74899998 17.25 17.25)" font-size="15" font-family="TimesNewRomanPSMT"><tspan y="168" x="53 60.5 68 75.5 83 90.5 98 105.5 113 120.5">3024490241</tspan></text>
</g>
<g clip-path="url(#clip_4)">
<path transform="matrix(.46812497,0,0,.46812497,279.39997,133.34502)" stroke-width="2" stroke-linecap="round" stroke-linejoin="round" fill="none" stroke="#454545" d="M16 8C16.795649 8 17.561015 8.152241 18.296097 8.456722 19.03118 8.761204 19.680027 9.194749 20.24264 9.757359 20.805249 10.319968 21.238793 10.968814 21.543276 11.703897 21.847758 12.438983 21.999999 13.20435 22 14V21H18V14C17.999999 13.447715 17.804736 12.97631 17.414212 12.585786 17.023688 12.195262 16.552283 12 16 12 15.447715 12 14.976311 12.195262 14.585787 12.585787 14.195262 12.976312 14 13.447716 14 14V21H10V14C10.000001 13.20435 10.152242 12.438984 10.456723 11.703899 10.761206 10.968815 11.194751 10.319968 11.7573599 9.757359 12.319969 9.19475 12.968816 8.761205 13.703899 8.456722 14.438984 8.152241 15.20435 8 16 8Z"/>
<path transform="matrix(.46812497,0,0,.46812497,279.39997,133.34502)" stroke-width="2" stroke-linecap="round" stroke-linejoin="round" fill="none" stroke="#454545" d="M2 9H6V21H2Z"/>
<path transform="matrix(.46812497,0,0,.46812497,279.39997,133.34502)" stroke-width="2" stroke-linecap="round" stroke-linejoin="round" fill="none" stroke="#454545" d="M6 4C5.9999997 4.5522849 5.8047378 5.023689 5.414213 5.414213 5.023689 5.8047378 4.5522849 5.9999997 4 6 3.447715 5.9999997 2.9763106 5.8047378 2.5857864 5.414213 2.195262 5.023689 1.9999999 4.5522849 2 4 1.9999999 3.447715 2.195262 2.9763106 2.5857864 2.5857864 2.9763106 2.1952623 3.447715 2 4 2 4.5522849 2 5.023689 2.1952623 5.414213 2.5857864 5.8047378 2.9763106 5.9999997 3.447715 6 4Z"/>
</g>
<g clip-path="url(#clip_5)">
<text xml:space="preserve" transform="matrix(.74899998 0 0 .74899998 17.25 17.25)" font-size="14" font-family="TimesNewRomanPSMT"><tspan y="167" x="374.82814 383.3821 387.2741 394.2741 401.2741 407.4901 414.4901 418.3821">Linkedin</tspan></text>
</g>
<g clip-path="url(#clip_6)">
<path transform="matrix(.46812497,0,0,.46812497,501.853,133.34502)" stroke-width="2" stroke-linecap="round" stroke-linejoin="round" fill="none" stroke="#454545" d="M21.54 15H17C16.447716 15.000001 15.976312 15.195263 15.585787 15.585787 15.195263 15.976312 15.000001 16.447716 15 17V21.54"/>
<path transform="matrix(.46812497,0,0,.46812497,501.853,133.34502)" stroke-width="2" stroke-linecap="round" stroke-linejoin="round" fill="none" stroke="#454545" d="M7 3.34V5C6.9999997 5.397825 7.0761196 5.780508 7.2283608 6.1480505 7.380601 6.515592 7.597374 6.8400156 7.878679 7.1213204 8.159983 7.402624 8.484406 7.6193969 8.851949 7.771638 9.21949 7.9238789 9.602174 7.9999997 10 8 10.552284 8 11.023688 8.195262 11.414212 8.585786 11.804737 8.976311 11.999999 9.447715 12 10 12 11.1 12.9 12 14 12 14.552284 11.999999 15.023688 11.804737 15.414213 11.414212 15.804737 11.023688 15.999999 10.552284 16 10 16 8.9 16.9 8 18 8H21.17"/>
<path transform="matrix(.46812497,0,0,.46812497,501.853,133.34502)" stroke-width="2" stroke-linecap="round" stroke-linejoin="round" fill="none" stroke="#454545" d="M11 21.95V18C11 17.447714 10.804738 16.97631 10.414213 16.585787 10.023689 16.195263 9.552285 16 9 16 8.447715 15.999999 7.97631 15.804737 7.585786 15.414213 7.1952617 15.023688 6.9999997 14.552284 7 14V13C6.9999997 12.447715 6.8047378 11.976311 6.414213 11.585786 6.023689 11.195262 5.5522844 11 5 11H2.05"/>
<path transform="matrix(.46812497,0,0,.46812497,501.853,133.34502)" stroke-width="2" stroke-linecap="round" stroke-linejoin="round" fill="none" stroke="#454545" d="M22 12C21.999999 12.656609 21.93595 13.30691 21.80785 13.950902 21.679755 14.594894 21.490069 15.220204 21.238795 15.826832 20.987523 16.433459 20.679488 17.009749 20.314694 17.5557 19.949902 18.101653 19.53536 18.606776 19.071068 19.071068 18.606776 19.53536 18.101653 19.949902 17.5557 20.314694 17.009749 20.679488 16.433459 20.987523 15.826832 21.238795 15.220204 21.490069 14.594893 21.679755 13.950901 21.80785 13.306909 21.93595 12.656609 21.999999 12 22 11.34339 21.999999 10.693089 21.93595 10.049096 21.80785 9.405103 21.679755 8.779793 21.490069 8.173165 21.238795 7.5665376 20.987523 6.990248 20.679488 6.4442975 20.314694 5.8983466 19.949902 5.3932249 19.53536 4.9289319 19.071068 4.4646389 18.606776 4.0500957 18.101653 3.685303 17.5557 3.3205107 17.009749 3.0124777 16.433459 2.7612043 15.826832 2.5099309 15.220204 2.320245 14.594893 2.192147 13.950901 2.0640488 13.306909 1.9999999 12.656609 2 12 1.9999999 11.34339 2.0640488 10.693089 2.192147 10.049096 2.320245 9.405103 2.5099309 8.779793 2.7612043 8.173165 3.0124777 7.5665376 3.3205109 6.990248 3.6853035 6.4442975 4.0500957 5.8983466 4.4646389 5.3932249 4.9289319 4.9289319 5.3932249 4.4646389 5.8983466 4.0500957 6.444297 3.6853035 6.990248 3.3205109 7.5665376 3.0124777 8.173165 2.7612043 8.779793 2.5099309 9.405103 2.3202453 10.049096 2.192147 10.693089 2.064049 11.34339 2 12 2 12.656609 2 13.30691 2.064049 13.950902 2.1921473 14.594894 2.3202453 15.220204 2.509931 15.826832 2.7612046 16.433459 3.0124779 17.009749 3.3205109 17.5557 3.6853035 18.101653 4.0500957 18.606776 4.4646389 19.071068 4.9289319 19.53536 5.3932249 19.949902 5.8983466 20.314694 6.444297 20.679488 6.990248 20.987523 7.5665376 21.238795 8.173165 21.490069 8.779793 21.679755 9.405103 21.80785 10.049096 21.93595 10.693089 21.999999 11.34339 22 12Z"/>
</g>
<g clip-path="url(#clip_7)">
<text xml:space="preserve" transform="matrix(.74899998 0 0 .74899998 17.25 17.25)" font-size="14" font-family="TimesNewRomanPSMT"><tspan y="167" x="672.2031 679.9871 686.9871 691.6491 695.54116 700.2031 707.2031 711.09518 714.9872">Portfolio</tspan></text>
<path transform="matrix(.74899998,0,0,.74899998,17.25,17.25)" d="M28 231H722V233H28Z" fill="#2b2b2b"/>
<text fill="#454545" xml:space="preserve" transform="matrix(.74899998 0 0 .74899998 17.25 17.25)" font-size="18" font-family="TimesNewRomanPS" font-weight="bold"><tspan y="213" x="28 38.008005 48.016008 63.01001 78.00401 87.00401 94.99602">Summary</tspan></text>
<text xml:space="preserve" transform="matrix(.74899998 0 0 .74899998 17.25 17.25)" font-size="14" font-family="TimesNewRomanPSMT"><tspan y="262" x="28 36.554 42.77 49.77 56.77 63.77 69.986 76.986 83.202 88.648 92.54">Languages: </tspan></text>
<text xml:space="preserve" transform="matrix(.74899998 0 0 .74899998 17.25 17.25)" font-size="14" font-family="TimesNewRomanPS" font-weight="bold"><tspan y="262" x="96.03125 106.13925 112.355258 119.355258 127.13926 131.03127 137.24727 140.74727 144.24727 153.58527 161.36927 168.36927 172.26126 176.15326 181.59926">Arabic, English</tspan></text>
<text xml:space="preserve" transform="matrix(.74899998 0 0 .74899998 17.25 17.25)" font-size="14" font-family="TimesNewRomanPSMT"><tspan y="284" x="28 33.446 40.446 47.446 54.446 57.946 68.054 75.054 81.270008 84.770008 88.662 94.108 97.608 103.824008 107.324008 114.324008 118.216 125.216 132.216 136.108 143.108 146.608 152.054 159.054 162.946 166.838 170.73 176.946 183.946 187.446 192.108 199.108 203 206.892 210.392 215.838 219.73 225.946 232.162 239.162 242.662 249.662 255.878 262.878 269.094 272.986 279.986 286.986 293.202 297.86399 301.36399 308.36399 314.58 320.026 326.242 333.242 336.742 340.634 347.634 351.134 358.918 365.918 372.134 376.796 380.688 386.904 393.904 397.404 400.904 411.012 421.12 429.67399 433.17399 436.67399 446.78199 450.67399 454.56599 461.56599 465.06599 471.28199 478.28199 485.28199 491.498 496.15998 500.05198 503.94398 509.38999 515.60598 519.10598 522.998 529.998 533.498 540.498 546.714 552.16 556.052 563.052 570.052 573.94406 580.94406 587.94406 591.44406 594.94406 601.94406 608.16006 615.16006 621.37606 625.26809 632.26809 639.26809 643.1601 650.1601 657.1601 660.6601 664.1601 670.3761 677.3761">John Doe is a highly skilled full stack developer based in Sharjah, UAE, with expertise in designing, developing, and</tspan></text>
<text xml:space="preserve" transform="matrix(.74899998 0 0 .74899998 17.25 17.25)" font-size="14" font-family="TimesNewRomanPSMT"><tspan y="307" x="28 31.892 42.784 49.784 53.676004 59.892004 70.784008 77.00001 84.00001 87.892009 91.784008 98.784008 105.784008 109.284008 113.94601 120.94601 127.94601 134.94602 140.39202 144.28401 147.78401 157.89202 164.10802 171.10802 174.60802 180.82402 187.82402 194.82402 198.71602 202.60802 208.82402 215.04003 218.93202 222.82402 229.82402 236.82402 242.27002 245.77002 249.27002 257.05403 261.716 268.716 275.716 281.932 288.932 292.432 298.648 305.648 309.54 313.432 317.324 321.216 328.216 331.716 335.608 342.608 346.108 356.216 363.216 367.878 374.878 378.378 384.594 390.81 395.472 402.472 407.918 413.364 416.864 420.756 427.756 433.97203 437.47203 443.68803 450.68803 454.58003 458.47203 463.134 469.35 472.85 478.29603 485.29603 489.958 493.85 503.958 510.174 514.836 521.052 524.552 531.552 537.768 544.768 550.984 554.87606 561.87606 568.87606 579.76809 585.9841 592.9841 596.8761 600.3761 604.2681 608.16018 612.82217 619.03817 625.25418 632.25418 638.47018 642.3622 648.5782 652.0782 655.5782 659.4702 665.6862 672.6862 678.9022 683.5642 689.7802 696.7802 700.67227 707.67227">implementing robust web applications. Proven ability to work across the entire software development lifecycle, leveraging</tspan></text>
<text xml:space="preserve" transform="matrix(.74899998 0 0 .74899998 17.25 17.25)" font-size="14" font-family="TimesNewRomanPSMT"><tspan y="329" x="28 35 39.662 46.662 51.323999 55.216 61.432 65.324 71.54 78.54 84.756008 91.756008 95.256008 99.148 106.148 109.648 116.648 123.648 127.54 134.54001 138.04001 142.70201 147.36402 154.36402 161.36402 165.25601 169.91802 176.13402 183.13402 190.13402 193.63402 199.85002 206.85002 213.85002 217.35002 224.35002 230.56603 236.78203 243.78203 248.44403 254.66004 261.66004 268.66004 272.16004 276.05204 282.26805 288.48405 295.48405 302.48405 309.48405 313.37605 320.37605 327.37605 331.26805 337.48405 342.93006">proficiency in both front-end and back-end technologies.</tspan></text>
<text fill="#454545" xml:space="preserve" transform="matrix(.74899998 0 0 .74899998 17.25 17.25)" font-size="18" font-family="TimesNewRomanPS" font-weight="bold"><tspan y="380" x="28 40.006 49.006 59.014 67.006 74.998 80.002 87.994 98.00201 105.994">Experience</tspan></text>
<path transform="matrix(.74899998,0,0,.74899998,17.25,17.25)" d="M28 402H722V404H28Z" fill="#2b2b2b"/>
<text xml:space="preserve" transform="matrix(.74899998 0 0 .74899998 17.25 17.25)" font-size="15" font-family="TimesNewRomanPS" font-weight="bold"><tspan y="434" x="28 38.83 47.170003 54.670003 61.33 67.990009 72.98501 77.15501 82.990009 87.16 95.50001 103.00001 106.75001 120.91001 128.41 136.75 144.25 151.75 158.41">Advertising Manager</tspan></text>
<text fill="#454545" xml:space="preserve" transform="matrix(.74899998 0 0 .74899998 17.25 17.25)" font-size="14" font-family="TimesNewRomanPSMT"><tspan y="458" x="28 38.108 45.108 49.000005 52.892007 59.108007 66.108 69.608 77.392009 81.284008 87.50001 91.392009 97.60801">United States</tspan></text>
<text fill="#454545" xml:space="preserve" transform="matrix(.74899998 0 0 .74899998 17.25 17.25)" font-size="14" font-family="TimesNewRomanPSMT"><tspan y="458" x="103.046878 106.546878 109.793949 121.88672 128.10272 133.54872 140.54872 144.44072 151.44072 158.44072 162.33272 169.33272">, Washington</tspan></text>
<text fill="#454545" xml:space="preserve" transform="matrix(.74899998 0 0 .74899998 17.25 17.25)" font-size="14" font-family="TimesNewRomanPSMT"><tspan y="458" x="176.32813 179.82813 183.32813 191.10742 198.10742 204.32343 207.82343 217.16143 221.05342 228.05342 231.94542 238.94542 242.83742 249.83742">, Lyc Clothing</tspan></text>
<text xml:space="preserve" transform="matrix(.74899998 0 0 .74899998 17.25 17.25)" font-size="14" font-family="TimesNewRomanPSMT"><tspan y="458" x="578 590.446 596.662 601.324 604.824 611.824 618.824 625.824">Mar 2024</tspan></text>
<text fill="#0a0a0a" xml:space="preserve" transform="matrix(.74899998 0 0 .74899998 17.25 17.25)" font-size="16" font-family="TimesNewRomanPSMT"><tspan y="458" x="640.8281">&#x2014;</tspan></text>
<text xml:space="preserve" transform="matrix(.74899998 0 0 .74899998 17.25 17.25)" font-size="14" font-family="TimesNewRomanPSMT"><tspan y="458" x="664.8281 677.2741 683.4901 690.4901 693.9901 700.9901 707.9901 714.9901">May 2025</tspan></text>
<text xml:space="preserve" transform="matrix(.74899998 0 0 .74899998 17.25 17.25)" font-size="14" font-family="TimesNewRomanPSMT"><tspan y="487" x="28 35.57422 41.79022 48.006219 55.006219 62.006219 69.00622 72.89822 79.89822 86.89822 90.790218 97.00622 102.45222 105.95222 112.95222 118.39822 124.61422 131.61423 135.50623">Technologies used: </tspan></text>
<text xml:space="preserve" transform="matrix(.74899998 0 0 .74899998 17.25 17.25)" font-size="14" font-family="TimesNewRomanPS" font-weight="bold"><tspan y="487" x="139 149.108 155.324 162.324 168.54001 173.20201 176.70201 183.70201 191.48601 194.98601 198.48601 208.59401 215.59401 223.378 229.59401 234.25601 239.70201 243.20201 246.70201 259.918 266.918 274.702 281.702 288.702 298.81 308.148 311.648 315.148 324.48603 331.48603 339.27003 345.24024 351.45625 356.90226 362.34828 365.84828 372.84828 380.63227 384.13227 387.63227 400.84828 407.84828 415.63227 422.63227 429.63227 436.63227 442.07829 448.29429 451.79429 455.29429 462.29429 470.07829 477.86228 480.59864 490.70664 496.66993 502.88594 507.5479 513.7639">React JS, Nodejs, MongoDB, Express JS, Mongoose, and Arcjet</tspan></text>
<text xml:space="preserve" transform="matrix(.74899998 0 0 .74899998 17.25 17.25)" font-size="14" font-family="TimesNewRomanPSMT"><tspan y="508" x="28 40.446 46.662 53.662 59.878 66.878 73.094 80.094 83.594 89.810009 96.810009 103.810009 110.02601 114.68801 118.58001 122.47201 127.91801 131.81002 138.81002 145.81002 149.31002 155.52602 161.74202 172.63402 179.63402 185.85002 189.74202 196.74202 203.74202 209.18802 212.68802 217.35002 224.35002 229.01203 232.51203 240.26953 247.26953 253.48554 256.98554 266.32356 270.21556 277.21556 281.10755 288.10755 291.99955 298.99955 305.99955 309.49955 312.99955 319.99955 324.66154 328.55354 335.55354 339.44554 346.44554 353.44554 356.94554 363.16154 366.66154 373.66154 385.32353 388.82353 392.7155 399.7155 405.93153 410.5935 416.8095 423.0255 428.47154 434.68754 438.18754 442.07954 449.07954 452.57954 459.57954 466.57954 470.47154 474.36354 481.36354 487.57954 491.07954 496.52555 502.74156 506.63356 512.84957 518.29556 521.79556 525.68759 532.68759 537.34957 544.34957 551.34957 558.34957 565.34957 568.84957 574.29556 578.18759 582.84957 589.06558 592.9576 599.1736 606.1736 610.0656 616.2816 619.7816 630.67367 636.88967 643.88967 647.7817 653.9977 657.4977 664.4977 668.3897 674.6057 681.6057 688.6057 692.49777 699.49777">Managed advertising campaigns for Lyc Clothing, driving a 3% increase in online sales through strategic media planning</tspan></text>
<text xml:space="preserve" transform="matrix(.74899998 0 0 .74899998 17.25 17.25)" font-size="14" font-family="TimesNewRomanPSMT"><tspan y="529" x="28 34.216 41.216 48.216 51.716 57.932 64.932 71.148 77.364009 84.364009 88.256008 92.148 99.148 106.148 109.648 113.148 123.256008 129.472 136.472 142.688 146.58 153.58 160.58 166.796 173.796 177.296 183.51201 190.51201 197.51201 201.01201 204.904 215.796 222.796 226.688 232.904 243.796 250.01201 257.01203 260.90403 267.12004 274.12004 277.62004 281.51203 288.51203 295.51203 302.51203 309.51203 315.72804 319.62004 323.51203 330.51203 336.72804 340.22804 351.12004 357.33604 361.99803 368.99803 375.21403 379.10603 382.99803 389.99803 396.99803 400.49803 405.94404 409.83604 414.49803 420.71403 424.60603 430.82203 437.82203 441.71403 447.93003 453.37605 456.87605 463.09205 469.30805 473.97004 480.97004 486.41606 491.86207 495.36207 502.36207 508.57807 513.24008 517.1321 524.1321 531.1321 536.57809 540.07809 546.29409 553.29409 559.5101 566.5101 573.5101 579.7261 583.6181 589.0641">and execution. Developed and implemented innovative marketing strategies across various channels,</tspan></text>
<text xml:space="preserve" transform="matrix(.74899998 0 0 .74899998 17.25 17.25)" font-size="15" font-family="TimesNewRomanPS" font-weight="bold"><tspan y="567" x="28 37.165 45.505 49.675004 53.845006 57.595006 63.430006 68.425 75.925 82.58501 90.92501 94.67501 103.015018 109.67502 117.17502 123.83502 128.00502 135.50502 143.84502 150.50502">Full stack developer</tspan></text>
<text fill="#454545" xml:space="preserve" transform="matrix(.74899998 0 0 .74899998 17.25 17.25)" font-size="14" font-family="TimesNewRomanPSMT"><tspan y="591" x="28 38.108 45.108 49.000005 52.892007 59.108007 66.108 68.831058 78.93906 83.60106 89.81706 96.81706 100.31706 108.87106 119.76306 123.65506 128.31707 134.53307 138.42507 144.64107">United Arab Emirates</tspan></text>
<text fill="#454545" xml:space="preserve" transform="matrix(.74899998 0 0 .74899998 17.25 17.25)" font-size="14" font-family="TimesNewRomanPSMT"><tspan y="591" x="150.07813 153.57813 157.07813 164.86212 171.86212 178.07813 182.74013 186.63213 192.84813">, Sharjah</tspan></text>
<text fill="#454545" xml:space="preserve" transform="matrix(.74899998 0 0 .74899998 17.25 17.25)" font-size="14" font-family="TimesNewRomanPSMT"><tspan y="591" x="199.84375 203.34375 206.84375 216.18175 226.03907 229.53907 236.53907 243.53907 247.43106 251.32306 258.32307 264.53907">, CV builder</tspan></text>
<text xml:space="preserve" transform="matrix(.74899998 0 0 .74899998 17.25 17.25)" font-size="14" font-family="TimesNewRomanPSMT"><tspan y="591" x="587.3281 599.7741 605.9901 610.6521 614.1521 621.1521 628.1521 635.1521">Mar 2025</tspan></text>
<text fill="#0a0a0a" xml:space="preserve" transform="matrix(.74899998 0 0 .74899998 17.25 17.25)" font-size="16" font-family="TimesNewRomanPSMT"><tspan y="592" x="650.15628">&#x2014;</tspan></text>
<text xml:space="preserve" transform="matrix(.74899998 0 0 .74899998 17.25 17.25)" font-size="14" font-family="TimesNewRomanPSMT"><tspan y="591" x="674.15628 679.60226 686.60226 690.49429 693.99429 700.99429 707.99429 714.99429">Jul 2025</tspan></text>
<text xml:space="preserve" transform="matrix(.74899998 0 0 .74899998 17.25 17.25)" font-size="14" font-family="TimesNewRomanPSMT"><tspan y="621" x="28 35.57422 41.79022 48.006219 55.006219 62.006219 69.00622 72.89822 79.89822 86.89822 90.790218 97.00622 102.45222 105.95222 112.95222 118.39822 124.61422 131.61423">Technologies used:</tspan></text>
<text xml:space="preserve" transform="matrix(.74899998 0 0 .74899998 17.25 17.25)" font-size="14" font-family="TimesNewRomanPSMT"><tspan y="621" x="135.50623"> </tspan></text>
<text xml:space="preserve" transform="matrix(.74899998 0 0 .74899998 17.25 17.25)" font-size="14" font-family="TimesNewRomanPS" font-weight="bold"><tspan y="621" x="139 149.108 155.324 162.324 168.54001 173.20201 176.70201 183.70201 191.48601 194.98601 198.48601 208.59401 215.59401 223.378 229.59401 234.25601 239.70201 243.20201 246.70201 259.918 266.918 274.702 281.702 288.702 298.81 308.148 311.648 315.148 324.48603 331.48603 339.27003 345.24024 351.45625 356.90226 362.34828 365.84828 372.84828 380.63227 384.13227 387.63227 400.84828 407.84828 415.63227 422.63227 429.63227 436.63227 442.07829 448.29429 451.79429 455.29429 462.29429 470.07829 477.86228 480.59864 490.70664 496.66993 502.88594 507.5479 513.7639">React JS, Nodejs, MongoDB, Express JS, Mongoose, and Arcjet</tspan></text>
<text xml:space="preserve" transform="matrix(.74899998 0 0 .74899998 17.25 17.25)" font-size="14" font-family="TimesNewRomanPSMT"><tspan y="642" x="28 38.108 44.324 51.324 57.54 61.432004 68.43201 75.43201 81.64801 88.64801 92.14801 98.36401 105.36401 112.36401 115.86401 126.75601 132.97202 136.86402 143.86402 147.75601 153.97202 157.86402 164.86402 171.08002 178.08002 181.58002 191.68802 197.90402 204.90402 208.40402 214.62003 221.62003 228.62003 232.51203 236.40402 242.62003 248.83603 252.72803 256.62004 263.62004 270.62004 276.06605 279.56605 283.06605 287.72804 294.72804 300.94404 307.94404 313.39006 317.28205 324.28205 331.28205 334.78205 341.78205 348.78205 352.28205 359.28205 366.28205 370.17405 377.17405 380.67405 385.33604 389.99803 396.99803 403.99803 407.89 412.552 418.768 425.768 432.768 436.268 442.484 449.484 456.484 459.984 466.984 473.2 479.41603 486.41603 491.078 497.294 504.294 511.294 514.794 518.68606 524.90206 531.11807 538.11807 545.11807 552.11807 556.0101 563.0101 570.0101 573.9021 580.1181 585.5641 589.0641 592.5641 601.9021 608.9021 612.7941 616.68618 622.90219 629.90219 636.90219 641.56417 647.78018 651.6722 657.8882 664.8882 668.3882 678.49618 682.3882 686.2802 693.2802 696.7802">Developed and maintained web applications, focusing on both front-end and back-end technologies. Collaborated with a</tspan></text>
<text xml:space="preserve" transform="matrix(.74899998 0 0 .74899998 17.25 17.25)" font-size="14" font-family="TimesNewRomanPSMT"><tspan y="663" x="28 31.892 38.108 44.324 55.216005 58.716005 62.608007 69.608 73.108 80.108 86.324008 91.770008 95.662 102.662 109.662 113.162 119.378009 126.378009 133.378 136.878 140.77 151.662 158.662 162.554 168.77 179.662 185.878 192.878 196.77 200.27 207.27 212.716 218.932 223.59401 227.09401 230.98601 237.98601 241.878 248.09401 252.75601 257.418 263.634 269.85 276.066 281.51203 285.01203 292.01203 297.45805 301.35005 308.35005 315.35005 318.85005 328.18806 334.40406 340.62007 346.83607 350.72807 354.22807 360.44407 367.44407 374.44407 377.94407 388.83607 395.05207 402.05207 408.26808 415.26808 421.48408 428.48408 431.98408 437.43009 443.6461 448.30809 455.30809 461.52409 465.8418 470.50379 475.9498 479.8418 486.8418 493.0578 496.5578 500.4498 507.4498 514.4498 518.34188 524.55789 528.05789 538.16586 542.05789 545.9499 552.9499 556.4499 566.55789 573.55789 580.55789 586.77389 590.27389 594.1659 599.6119">team to design and implement user interfaces using React and managed server-side logic with Node.js.</tspan></text>
<text xml:space="preserve" transform="matrix(.74899998 0 0 .74899998 17.25 17.25)" font-size="14" font-family="TimesNewRomanPSMT"><tspan y="663" x="603.1119"> </tspan></text>
<text fill="#454545" xml:space="preserve" transform="matrix(.74899998 0 0 .74899998 17.25 17.25)" font-size="18" font-family="TimesNewRomanPS" font-weight="bold"><tspan y="710" x="28 40.006 50.014 60.022005 68.01401 77.01401 83.00801 88.01201 97.01201">Education</tspan></text>
<path transform="matrix(.74899998,0,0,.74899998,17.25,17.25)" d="M28 732H722V734H28Z" fill="#2b2b2b"/>
<text fill="#454545" xml:space="preserve" transform="matrix(.74899998 0 0 .74899998 17.25 17.25)" font-size="15" font-family="TimesNewRomanPS" font-weight="bold"><tspan y="764" x="28 38.005 45.505 52.165 60.505 67.165 71.335 78.835 85.495 89.665 95.5 99.25 110.08 116.740009 124.240009 130.61963 137.27964">Bachelor's Degree</tspan></text>
<text fill="#454545" xml:space="preserve" transform="matrix(.74899998 0 0 .74899998 17.25 17.25)" font-size="15" font-family="TimesNewRomanPS" font-weight="bold"><tspan y="764" x="143.9375 147.6875 151.4375 162.2675 169.7675 182.2625 190.6025 198.94249 203.93749 210.59749 216.98926 220.73926 229.07926 235.73926 239.90926 246.56926 254.90926 261.56925">, Computer Science</tspan></text>
<text xml:space="preserve" transform="matrix(.74899998 0 0 .74899998 17.25 17.25)" font-size="14" font-family="TimesNewRomanPSMT"><tspan y="764" x="581.2031 591.3111 598.3111 605.3111 608.8111 615.8111 622.8111 629.8111">Nov 2022</tspan></text>
<text fill="#0a0a0a" xml:space="preserve" transform="matrix(.74899998 0 0 .74899998 17.25 17.25)" font-size="16" font-family="TimesNewRomanPSMT"><tspan y="765" x="642.8281">&#x2014;</tspan></text>
<text xml:space="preserve" transform="matrix(.74899998 0 0 .74899998 17.25 17.25)" font-size="14" font-family="TimesNewRomanPSMT"><tspan y="764" x="664.8281 677.2741 683.4901 690.4901 693.9901 700.9901 707.9901 714.9901">May 2025</tspan></text>
<text fill="#454545" xml:space="preserve" transform="matrix(.74899998 0 0 .74899998 17.25 17.25)" font-size="14" font-family="TimesNewRomanPSMT"><tspan y="788" x="28 35.784 39.676004 45.892004 52.892004 59.892004 64.554 71.554 76.216 83.216 86.716 93.716 100.716 104.608 111.608 117.824008 122.48601 127.93201 131.824">Standford universty</tspan></text>
<text xml:space="preserve" transform="matrix(.74899998 0 0 .74899998 17.25 17.25)" font-size="14" font-family="TimesNewRomanPSMT"><tspan y="814" x="28 38.108 42.77 48.986 55.986 62.986 69.202 73.094 79.310009 86.310009 89.810009 99.91801 103.810009 107.702 114.702 118.202 124.41801 127.91801 134.134 140.35 145.01201 148.904 152.796 157.45801 161.35 167.56601 173.78202 177.67401 183.89002 187.39002 194.39002 199.05202 202.55202 209.55202 216.55202 223.55202 230.55202 235.21402 238.71402 249.60602 253.10602 259.32203 262.82203 272.93003 279.39845 288.73634 292.23634 299.23634 303.89833 307.39833 314.39833 317.89833 324.89833">Graduated with a certificate of honor &#x0026; a GPA of 3.65</tspan></text>
<text fill="#454545" xml:space="preserve" transform="matrix(.74899998 0 0 .74899998 17.25 17.25)" font-size="18" font-family="TimesNewRomanPS" font-weight="bold"><tspan y="861" x="28 38.008005 48.016008 53.020009 58.02401 63.02801 70.030017 74.530017 89.52402 93.69824 104.05176 112.04376 120.03577 130.04376 140.05176 149.05176 154.05576 163.05576 172.05576 177.05976 185.05176">Skills &#x0026; Technologies</tspan></text>
<path transform="matrix(.74899998,0,0,.74899998,17.25,17.25)" d="M28 883H722V885H28Z" fill="#2b2b2b"/>
<path transform="matrix(.74899998,0,0,.74899998,17.25,17.25)" d="M32 915C31.999999 915.2652 31.94925 915.52029 31.847756 915.7653 31.746262 916.0103 31.601748 916.2266 31.414214 916.4142 31.226675 916.60177 31.010392 916.7462 30.765364 916.8477 30.520337 916.9492 30.265215 916.99996 30 917 29.734782 916.99996 29.479659 916.94918 29.23463 916.84768 28.989602 916.7462 28.77332 916.60177 28.585783 916.4142 28.398245 916.2266 28.253729 916.0103 28.152237 915.7653 28.050744 915.52029 27.999999 915.2652 28 915 27.999999 914.7347 28.050744 914.47958 28.152237 914.2345 28.253729 913.9895 28.398245 913.77328 28.585783 913.58578 28.77332 913.3982 28.989602 913.25369 29.234629 913.15219 29.479659 913.0507 29.734782 913 30 913 30.265215 913 30.520337 913.0507 30.765364 913.1521 31.010392 913.2536 31.226675 913.3982 31.414214 913.58578 31.601748 913.77328 31.746262 913.9895 31.847756 914.2345 31.94925 914.47958 31.999999 914.7347 32 915Z"/>
<text xml:space="preserve" transform="matrix(.74899998 0 0 .74899998 17.25 17.25)" font-size="15" font-family="TimesNewRomanPS" font-weight="bold"><tspan y="919" x="48 58.83 65.490009 72.990009 79.65001 84.64501 92.14501">ReactJS</tspan></text>
<text xml:space="preserve" transform="matrix(.74899998 0 0 .74899998 17.25 17.25)" font-size="15" font-family="TimesNewRomanPS" font-weight="bold"><tspan y="919" x="100.5 104.25 109.245 116.745 120.915 128.41501"> (5/5)</tspan></text>
<path transform="matrix(.74899998,0,0,.74899998,17.25,17.25)" d="M32 949C31.999999 949.2652 31.94925 949.52029 31.847756 949.76528 31.746262 950.01028 31.601748 950.22659 31.414214 950.4141 31.226675 950.6016 31.010392 950.74618 30.765364 950.84768 30.520337 950.94918 30.265215 950.99996 30 951 29.734782 950.99996 29.479659 950.9491 29.23463 950.8476 28.989602 950.7461 28.77332 950.6016 28.585783 950.4141 28.398245 950.22659 28.253729 950.01028 28.152237 949.76528 28.050744 949.52029 27.999999 949.2652 28 949 27.999999 948.73477 28.050744 948.4796 28.152237 948.23458 28.253729 947.9895 28.398245 947.77328 28.585783 947.58578 28.77332 947.3982 28.989602 947.25369 29.234629 947.15219 29.479659 947.0507 29.734782 947 30 947 30.265215 947 30.520337 947.0507 30.765364 947.15219 31.010392 947.25369 31.226675 947.3982 31.414214 947.58578 31.601748 947.77328 31.746262 947.9895 31.847756 948.23458 31.94925 948.4796 31.999999 948.73477 32 949Z"/>
<text xml:space="preserve" transform="matrix(.74899998 0 0 .74899998 17.25 17.25)" font-size="15" font-family="TimesNewRomanPS" font-weight="bold"><tspan y="953" x="48 55.5 63 70.5 78 86.340007 93.00001 99.66001 103.83001 112.17001">JavaScript</tspan></text>
<text xml:space="preserve" transform="matrix(.74899998 0 0 .74899998 17.25 17.25)" font-size="15" font-family="TimesNewRomanPS" font-weight="bold"><tspan y="953" x="117.171878 120.921878 125.91688 133.41687 137.58687 145.08687"> (5/5)</tspan></text>
<path transform="matrix(.74899998,0,0,.74899998,17.25,17.25)" d="M32 984C31.999999 984.26516 31.94925 984.5202 31.847756 984.7652 31.746262 985.01028 31.601748 985.22659 31.414214 985.4141 31.226675 985.6016 31.010392 985.7461 30.765364 985.8476 30.520337 985.9491 30.265215 985.99996 30 986 29.734782 985.99996 29.479659 985.9491 29.23463 985.8476 28.989602 985.7461 28.77332 985.6016 28.585783 985.4141 28.398245 985.22659 28.253729 985.01028 28.152237 984.7652 28.050744 984.5202 27.999999 984.26516 28 984 27.999999 983.7347 28.050744 983.47958 28.152237 983.2345 28.253729 982.9895 28.398245 982.77328 28.585783 982.58578 28.77332 982.3982 28.989602 982.25369 29.234629 982.15219 29.479659 982.0507 29.734782 982 30 982 30.265215 982 30.520337 982.0507 30.765364 982.15219 31.010392 982.25369 31.226675 982.3982 31.414214 982.58578 31.601748 982.77328 31.746262 982.9895 31.847756 983.23458 31.94925 983.47958 31.999999 983.7347 32 984Z"/>
<text xml:space="preserve" transform="matrix(.74899998 0 0 .74899998 17.25 17.25)" font-size="15" font-family="TimesNewRomanPS" font-weight="bold"><tspan y="988" x="48 62.16 69.66 78.00001 85.50001 93.00001 101.34001">Mongodb</tspan></text>
<text xml:space="preserve" transform="matrix(.74899998 0 0 .74899998 17.25 17.25)" font-size="15" font-family="TimesNewRomanPS" font-weight="bold"><tspan y="988" x="109.6875 113.4375 118.4325 125.9325 130.10251 137.60251"> (4/5)</tspan></text>
<path transform="matrix(.74899998,0,0,.74899998,17.25,17.25)" d="M32 1018C31.999999 1018.26516 31.94925 1018.5202 31.847756 1018.7652 31.746262 1019.01028 31.601748 1019.22659 31.414214 1019.4141 31.226675 1019.6016 31.010392 1019.74618 30.765364 1019.84768 30.520337 1019.94918 30.265215 1019.99996 30 1020 29.734782 1019.99996 29.479659 1019.94918 29.23463 1019.84768 28.989602 1019.74618 28.77332 1019.6016 28.585783 1019.4141 28.398245 1019.22659 28.253729 1019.01028 28.152237 1018.76528 28.050744 1018.5202 27.999999 1018.26516 28 1018 27.999999 1017.7347 28.050744 1017.47958 28.152237 1017.2345 28.253729 1016.98947 28.398245 1016.77316 28.585783 1016.5857 28.77332 1016.39816 28.989602 1016.25369 29.234629 1016.15219 29.479659 1016.0507 29.734782 1016 30 1016 30.265215 1016 30.520337 1016.0507 30.765364 1016.15219 31.010392 1016.25369 31.226675 1016.39816 31.414214 1016.5857 31.601748 1016.77316 31.746262 1016.98947 31.847756 1017.2345 31.94925 1017.47958 31.999999 1017.7347 32 1018Z"/>
<text xml:space="preserve" transform="matrix(.74899998 0 0 .74899998 17.25 17.25)" font-size="15" font-family="TimesNewRomanPS" font-weight="bold"><tspan y="1022" x="48 58.83 66.33 74.670009 81.33001 88.83001">NodeJS</tspan></text>
<text xml:space="preserve" transform="matrix(.74899998 0 0 .74899998 17.25 17.25)" font-size="15" font-family="TimesNewRomanPS" font-weight="bold"><tspan y="1022" x="97.1875 100.9375 105.9325 113.4325 117.6025 125.1025"> (3/5)</tspan></text>
</g>
</svg>
