<svg xmlns="http://www.w3.org/2000/svg" xmlns:xlink="http://www.w3.org/1999/xlink" xmlns:inkscape="http://www.inkscape.org/namespaces/inkscape" version="1.1" width="594.95999" height="841.92" viewBox="0 0 594.95999 841.92">
<defs>
<clipPath id="clip_0">
<path transform="matrix(.24,0,0,.24,0,0)" d="M71.875 71.875H2410.4493V3437.9395H71.875Z" clip-rule="evenodd"/>
</clipPath>
<clipPath id="clip_1">
<path transform="matrix(.24,0,0,.24,0,0)" d="M71.875 71.875H2410.4493V3261.3665H71.875Z" clip-rule="evenodd"/>
</clipPath>
</defs>
<path transform="matrix(.74899998,0,0,.74899998,17.25,17.25)" d="M0 0H749V1079H0Z" fill="#ffffff"/>
<g clip-path="url(#clip_0)">
<path transform="matrix(.74899998,0,0,.74899998,17.25,17.25)" d="M0 0H750V1022H0Z" fill="#ffffff"/>
</g>
<g clip-path="url(#clip_1)">
<text xml:space="preserve" transform="matrix(.74899998 0 0 .74899998 17.25 17.25)" font-size="16" font-family="TimesNewRomanPSMT"><tspan y="57" x="310.125 319.021 327.021 331.469 335.917 339.917 346.141 350.589 357.693 364.797 372.797 376.797 384.797 391.901 399.901 407.005 411.453 419.453 427.453 434.557">Full stack developer</tspan></text>
<text fill="#454545" xml:space="preserve" transform="matrix(.74899998 0 0 .74899998 17.25 17.25)" font-size="33" font-family="TimesNewRomanPS" font-weight="bold"><tspan y="99" x="308.51564 325.01564 341.51564 359.86363">John</tspan></text>
<text fill="#454545" xml:space="preserve" transform="matrix(.74899998 0 0 .74899998 17.25 17.25)" font-size="33" font-family="TimesNewRomanPS" font-weight="bold"><tspan y="99" x="378.23439"> </tspan></text>
<text fill="#454545" xml:space="preserve" transform="matrix(.74899998 0 0 .74899998 17.25 17.25)" font-size="33" font-family="TimesNewRomanPS" font-weight="bold"><tspan y="99" x="386.48439 410.31037 426.81037">Doe</tspan></text>
<text fill="#454545" xml:space="preserve" transform="matrix(.74899998 0 0 .74899998 17.25 17.25)" font-size="14" font-family="TimesNewRomanPSMT"><tspan y="129" x="289.07814 299.18614 306.18614 310.07814 313.97013 320.18614 327.18614 329.90919 340.01719 344.67918 350.89518 357.89518 361.39518 369.94917 380.84117 384.73316 389.39515 395.61116 399.50315 405.71916">United Arab Emirates</tspan></text>
<text fill="#454545" xml:space="preserve" transform="matrix(.74899998 0 0 .74899998 17.25 17.25)" font-size="14" font-family="TimesNewRomanPSMT"><tspan y="129" x="411.15626 414.65626">, </tspan></text>
<text fill="#454545" xml:space="preserve" transform="matrix(.74899998 0 0 .74899998 17.25 17.25)" font-size="14" font-family="TimesNewRomanPSMT"><tspan y="129" x="418.15626 425.94026 432.94026 439.15626 443.81825 447.71025 453.92625">Sharjah</tspan></text>
<text xml:space="preserve" transform="matrix(.74899998 0 0 .74899998 17.25 17.25)" font-size="13" font-family="TimesNewRomanPSMT"><tspan y="161" x="212.71875 217.77576 224.27576 230.77576 237.27576 243.77576 250.27576 256.04777 268.02076 274.52076 284.63478 290.40678 294.02079 297.6348 300.8848 306.6568 313.1568">Johndoe@gmail.com</tspan></text>
<text xml:space="preserve" transform="matrix(.74899998 0 0 .74899998 17.25 17.25)" font-size="13" font-family="TimesNewRomanPSMT"><tspan y="161" x="331.26564">|</tspan></text>
<text xml:space="preserve" transform="matrix(.74899998 0 0 .74899998 17.25 17.25)" font-size="13" font-family="TimesNewRomanPSMT"><tspan y="161" x="341.875 348.375 354.875 361.375 367.875 374.375 380.875 387.375 393.875 400.375">3024490241</tspan></text>
<text xml:space="preserve" transform="matrix(.74899998 0 0 .74899998 17.25 17.25)" font-size="13" font-family="TimesNewRomanPSMT"><tspan y="161" x="414.875">|</tspan></text>
<path transform="matrix(.74899998,0,0,.74899998,17.25,17.25)" d="M425.48439 162H472.42189V163H425.48439Z"/>
<text xml:space="preserve" transform="matrix(.74899998 0 0 .74899998 17.25 17.25)" font-size="13" font-family="TimesNewRomanPSMT"><tspan y="161" x="425.48439 433.42738 437.04139 443.54139 450.04139 455.8134 462.3134 465.9274">Linkedin</tspan></text>
<text xml:space="preserve" transform="matrix(.74899998 0 0 .74899998 17.25 17.25)" font-size="13" font-family="TimesNewRomanPSMT"><tspan y="161" x="480.42189">|</tspan></text>
<path transform="matrix(.74899998,0,0,.74899998,17.25,17.25)" d="M491.03126 162H537.2656V163H491.03126Z"/>
<text xml:space="preserve" transform="matrix(.74899998 0 0 .74899998 17.25 17.25)" font-size="13" font-family="TimesNewRomanPSMT"><tspan y="161" x="491.03126 498.25926 504.75926 509.08827 512.7023 517.03128 523.53128 527.14529 530.7593">Portfolio</tspan></text>
<path transform="matrix(.74899998,0,0,.74899998,17.25,17.25)" d="M28 192H722V195H28Z" fill="#2b2b2b"/>
<text fill="#454545" xml:space="preserve" transform="matrix(.74899998 0 0 .74899998 17.25 17.25)" font-size="16" font-family="TimesNewRomanPS" font-weight="bold"><tspan y="232" x="28 36.896 48.448 63.552003 78.656009 90.20801 101.203128">SUMMARY</tspan></text>
<text xml:space="preserve" transform="matrix(.74899998 0 0 .74899998 17.25 17.25)" font-size="13" font-family="TimesNewRomanPSMT"><tspan y="258" x="50 57.943 63.715 70.215 76.715 83.215 88.987 95.487 101.259 106.316 109.93">Languages: </tspan></text>
<text xml:space="preserve" transform="matrix(.74899998 0 0 .74899998 17.25 17.25)" font-size="13" font-family="TimesNewRomanPS" font-weight="bold"><tspan y="258" x="113.171878 122.55788 128.32988 134.82988 142.05788 145.67188 151.44388 154.69388 157.94388 166.61489 173.84288 180.34288 183.95688 187.57088 192.62789">Arabic, English</tspan></text>
<text xml:space="preserve" transform="matrix(.74899998 0 0 .74899998 17.25 17.25)" font-size="13" font-family="TimesNewRomanPSMT"><tspan y="277" x="50 57.033205 62.805204 68.5772 75.0772 81.5772 88.0772 91.6912 98.1912 104.6912 108.3052 114.0772 119.1342 122.7482">Technologies: </tspan></text>
<text xml:space="preserve" transform="matrix(.74899998 0 0 .74899998 17.25 17.25)" font-size="13" font-family="TimesNewRomanPS" font-weight="bold"><tspan y="277" x="126 133.943 140.443 144.77199 151.99999 158.49999 165.72798 168.97798 172.22798 178.72798 185.22798 191.72798 198.22798 205.45598 211.22798 216.99999 220.61399 227.84198 232.17098 235.42098 238.67098 248.05698 253.82898 260.32899 266.10099 270.43 276.93">Python, JavaScript, ReactJS</tspan></text>
<text xml:space="preserve" transform="matrix(.74899998 0 0 .74899998 17.25 17.25)" font-size="13" font-family="TimesNewRomanPSMT"><tspan y="296" x="50 55.057 61.557 68.057 74.557 77.807 87.193 93.693 99.465007 102.715007 106.329 111.386 114.636 120.408008 123.658008 130.158 133.772 140.272 146.772 150.386 156.886 160.136 165.19301 171.69301 175.307 178.921 182.535 188.307 194.807 198.057 202.386 208.886 212.5 216.114 219.364 224.421 228.035 233.807 239.57901 246.07901 249.32901 255.82901 261.601 268.101 273.87303 277.48704 283.98704 290.48704 296.25904 300.58805 303.83805 310.33805 316.11006 321.16706 326.93907 333.43907 336.68907 340.30308 346.80308 350.05308 357.28108 363.78108 369.55308 373.88209 377.4961 383.2681 389.7681 393.0181 396.2681 405.65409 415.04008 422.98307 426.23307 429.48307 438.86906 442.48307 446.09709 452.59709 455.84709 461.61909 468.11909 474.61909 480.39109 484.7201 488.3341 491.94813 497.00514 502.77714 506.02714 509.64115 516.1411 519.3911 525.8911 531.6631 536.7201 540.3341 546.8341 553.3341 556.9481 563.4481 569.9481 573.1981 576.4481 582.9481 588.7201 595.2201 600.99209 604.6061 611.1061 617.6061 621.2201 627.7201 634.2201 637.4701 640.7201 646.49209 652.99209">John Doe is a highly skilled full stack developer based in Sharjah, UAE, with expertise in designing, developing, and</tspan></text>
<text xml:space="preserve" transform="matrix(.74899998 0 0 .74899998 17.25 17.25)" font-size="13" font-family="TimesNewRomanPSMT"><tspan y="315" x="50 53.614 63.727998 70.228 73.841999 79.614 89.728 95.5 102 105.614 109.228 115.728 122.228 125.478 129.80699 136.30699 142.80699 149.30699 154.364 157.978 161.228 170.614 176.386 182.886 186.136 191.908 198.408 204.908 208.522 212.136 217.908 223.68001 227.294 230.908 237.408 243.908 248.96501 252.21501 255.46501 262.69303 267.02204 273.52204 280.02204 285.79405 292.29405 295.54405 301.31605 307.81605 311.43006 315.04408 318.65809 322.2721 328.7721 332.0221 335.6361 342.1361 345.3861 354.7721 361.2721 365.6011 372.1011 375.3511 381.1231 386.8951 391.22413 397.72413 402.78114 407.83815 411.08815 414.70216 421.20216 426.97416 430.22416 435.99617 442.49617 446.11018 449.72419 454.0532 459.8252 463.0752 468.1322 474.6322 478.9612 482.57524 491.9612 497.73323 502.06224 507.83424 511.08424 517.5842 523.3562 529.8562 535.6282 539.2422 545.7422 552.2422 562.3562 568.1282 574.6282 578.2422 581.4922 585.1062 588.7202 593.0492 598.82119 604.59317 611.09317 616.8651 620.4791 626.2511 629.5011 632.7511 636.3651 642.1371 648.6371 654.40908 658.73806 664.51 671.01 674.624 681.124">implementing robust web applications. Proven ability to work across the entire software development lifecycle, leveraging</tspan></text>
<text xml:space="preserve" transform="matrix(.74899998 0 0 .74899998 17.25 17.25)" font-size="13" font-family="TimesNewRomanPSMT"><tspan y="333" x="50 56.5 60.829 67.328998 71.658 75.271999 81.044 84.658 90.43 96.93 102.702 109.202 112.452 116.066 122.566 125.816 132.31601 138.81601 142.43001 148.93001 152.18001 156.509 160.838 167.338 173.838 177.452 181.78099 187.553 194.053 200.553 203.803 209.575 216.075 222.575 225.825 232.325 238.097 243.869 250.369 254.698 260.47 266.97 273.47 276.72 280.334 286.10603 291.87803 298.37803 304.87803 311.37803 314.99205 321.49205 327.99205 331.60606 337.37806 342.43507">proficiency in both front-end and back-end technologies.</tspan></text>
<text fill="#454545" xml:space="preserve" transform="matrix(.74899998 0 0 .74899998 17.25 17.25)" font-size="16" font-family="TimesNewRomanPS" font-weight="bold"><tspan y="378" x="28 38.672 50.224004 60.000005 70.672008 82.22401 88.448009 99.12001 110.67201 122.224018">EXPERIENCE</tspan></text>
<text xml:space="preserve" transform="matrix(.74899998 0 0 .74899998 17.25 17.25)" font-size="14" font-family="TimesNewRomanPS" font-weight="bold"><tspan y="416" x="50 60.108 67.892009 74.892009 81.10801 87.32401 91.986019 95.87801 101.32401 105.21601 113.000019 120.000019 123.500019 136.71602 143.71602 151.50002 158.50002 165.50002 171.71602">Advertising Manager</tspan></text>
<text xml:space="preserve" transform="matrix(.74899998 0 0 .74899998 17.25 17.25)" font-size="13" font-family="TimesNewRomanPSMT"><tspan y="415" x="185.9375 197.4945 203.26651 207.5955 210.8455 217.3455 223.8455 230.3455">Mar 2024</tspan></text>
<text fill="#0a0a0a" xml:space="preserve" transform="matrix(.74899998 0 0 .74899998 17.25 17.25)" font-size="16" font-family="TimesNewRomanPSMT"><tspan y="416" x="244.85938">-</tspan></text>
<text xml:space="preserve" transform="matrix(.74899998 0 0 .74899998 17.25 17.25)" font-size="13" font-family="TimesNewRomanPSMT"><tspan y="415" x="258.1875 269.7445 275.5165 282.0165 285.2665 291.7665 298.2665 304.7665">May 2025</tspan></text>
<text fill="#454545" xml:space="preserve" transform="matrix(.74899998 0 0 .74899998 17.25 17.25)" font-size="13" font-family="TimesNewRomanPSMT"><tspan y="438" x="50 59.386 65.886 69.5 73.114 78.886 85.386 88.636 95.864 99.478 105.25 108.864 114.636">United States</tspan></text>
<text fill="#454545" xml:space="preserve" transform="matrix(.74899998 0 0 .74899998 17.25 17.25)" font-size="13" font-family="TimesNewRomanPSMT"><tspan y="438" x="119.6875 122.9375 125.95264 137.18164 142.95365 148.01065 154.51065 158.12465 164.62465 171.12465 174.73865 181.23865">, Washington</tspan></text>
<text fill="#454545" xml:space="preserve" transform="matrix(.74899998 0 0 .74899998 17.25 17.25)" font-size="13" font-family="TimesNewRomanPSMT"><tspan y="438" x="187.73438 190.98438 193.58438 196.83438 204.06055 210.56055 216.33255 219.58255 228.25356 231.86756 238.36756 241.98155 248.48155 252.09555 258.59556"> | Lyc Clothing</tspan></text>
<text xml:space="preserve" transform="matrix(.74899998 0 0 .74899998 17.25 17.25)" font-size="13" font-family="TimesNewRomanPSMT"><tspan y="467" x="50 57.033205 62.805204 68.5772 75.0772 81.5772 88.0772 91.6912 98.1912 104.6912 108.3052 114.0772 119.1342 122.3842 128.8842 133.94121 139.71321 146.21321 149.82721">Technologies used: </tspan></text>
<text xml:space="preserve" transform="matrix(.74899998 0 0 .74899998 17.25 17.25)" font-size="13" font-family="TimesNewRomanPS" font-weight="bold"><tspan y="467" x="153.07813 162.46413 168.23613 174.73613 180.50814 184.83713 188.08713 194.58713 201.81513 205.06513 208.31513 217.70113 224.20113 231.42913 237.20113 241.53012 246.58713 249.83713 253.08713 265.35914 271.85914 279.08714 285.58714 292.08714 301.4731 310.1441 313.3941 316.6441 325.3151 331.8151 339.0431 344.5869 350.35893 355.41593 360.47294 363.72294 370.22294 377.45094 380.70094 383.95094 396.22294 402.72294 409.95094 416.45094 422.95094 429.45094 434.50794 440.27995 443.52995 446.77995 453.27995 460.50794 467.73594 470.27687 479.66285 485.2002 490.9722 495.3012 501.0732">React JS, Nodejs, MongoDB, Express JS, Mongoose, and Arcjet</tspan></text>
<text xml:space="preserve" transform="matrix(.74899998 0 0 .74899998 17.25 17.25)" font-size="13" font-family="TimesNewRomanPSMT"><tspan y="486" x="50 61.557 67.329 73.829 79.601009 86.101009 91.87301 98.37301 101.62301 107.39501 113.89501 120.39501 126.167018 130.49602 134.11002 137.72402 142.78102 146.39502 152.89502 159.39502 162.64502 168.41703 174.18903 184.30303 190.80303 196.57503 200.18903 206.68903 213.18903 218.24604 221.49604 225.82503 232.32503 236.65402 239.90402 247.10742 253.60742 259.37944 262.62944 271.3004 274.91444 281.41444 285.02845 291.52845 295.14247 301.64247 308.14247 311.39247 314.64247 321.14247 325.47148 329.08549 335.58549 339.1995 345.6995 352.1995 355.4495 361.2215 364.4715 370.9715 381.8005 385.0505 388.66453 395.16453 400.93653 405.26554 411.03755 416.80955 421.86656 427.63856 430.88856 434.50257 441.00257 444.25257 450.75257 457.25257 460.86659 464.4806 470.9806 476.7526 480.0026 485.0596 490.8316 494.44563 500.21763 505.27464 508.52464 512.1386 518.6386 522.9676 529.4676 535.9676 542.4676 548.9676 552.2176 557.2746 560.8886 565.2176 570.98959 574.6036 580.37557 586.87557 590.48959 596.26156 599.51156 609.62557 615.3975 621.8975 625.51156 631.2835 634.5335 641.0335 644.6475 650.4195 656.9195 663.4195 667.0335 673.5335 680.0335 683.2835 689.0555 695.5555">Managed advertising campaigns for Lyc Clothing, driving a 3% increase in online sales through strategic media planning and</tspan></text>
<text xml:space="preserve" transform="matrix(.74899998 0 0 .74899998 17.25 17.25)" font-size="13" font-family="TimesNewRomanPSMT"><tspan y="506" x="50 55.772 62.272 68.044 73.816 80.316 83.93 87.544 94.044 100.544 103.794 107.044 116.43 122.202 128.702 134.474 138.088 144.588 151.088 156.86 163.36 166.61 172.382 178.882 185.382 188.632 192.246 202.36 208.86 212.474 218.246 228.36 234.132 240.632 244.246 250.018 256.518 259.768 263.38203 269.88203 276.38203 282.88203 289.38203 295.15403 298.76805 302.38206 308.88206 314.65406 317.90406 328.01808 333.79008 338.11909 344.61909 350.39109 354.0051 357.6191 364.1191 370.6191 373.8691 378.92613 382.54014 386.86915 392.64115 396.25517 402.02717 408.52717 412.14118 417.91319 422.97019 426.22019 431.9922 437.7642 442.0932 448.5932 453.6502 458.7072 461.9572 468.4572 474.22923 478.55824 482.17225 488.67225 495.17225 500.22926 503.47926 509.25126 515.7512 521.5232 528.0232 534.5232 540.29519 543.9092 548.9662">execution. Developed and implemented innovative marketing strategies across various channels,</tspan></text>
<text xml:space="preserve" transform="matrix(.74899998 0 0 .74899998 17.25 17.25)" font-size="14" font-family="TimesNewRomanPS" font-weight="bold"><tspan y="544" x="50 58.554 66.338008 70.23 74.122 77.622 83.068 87.73 94.73 100.94601 108.73001 112.23001 120.014019 126.23002 133.23001 139.44602 143.33802 150.33802 158.12201 164.33802">Full stack developer</tspan></text>
<text xml:space="preserve" transform="matrix(.74899998 0 0 .74899998 17.25 17.25)" font-size="13" font-family="TimesNewRomanPSMT"><tspan y="543" x="178.54688 190.10388 195.87589 200.20488 203.45488 209.95488 216.45488 222.95488">Mar 2025</tspan></text>
<text fill="#0a0a0a" xml:space="preserve" transform="matrix(.74899998 0 0 .74899998 17.25 17.25)" font-size="16" font-family="TimesNewRomanPSMT"><tspan y="544" x="237.46875">-</tspan></text>
<text xml:space="preserve" transform="matrix(.74899998 0 0 .74899998 17.25 17.25)" font-size="13" font-family="TimesNewRomanPSMT"><tspan y="543" x="250.79688 255.85388 262.35389 265.9679 269.2179 275.7179 282.2179 288.7179">Jul 2025</tspan></text>
<text fill="#454545" xml:space="preserve" transform="matrix(.74899998 0 0 .74899998 17.25 17.25)" font-size="13" font-family="TimesNewRomanPSMT"><tspan y="566" x="50 59.386 65.886 69.5 73.114 78.886 85.386 87.91455 97.30055 101.629558 107.40156 113.90156 117.15156 125.09456 135.20856 138.82256 143.15155 148.92356 152.53755 158.30956">United Arab Emirates</tspan></text>
<text fill="#454545" xml:space="preserve" transform="matrix(.74899998 0 0 .74899998 17.25 17.25)" font-size="13" font-family="TimesNewRomanPSMT"><tspan y="566" x="163.35938 166.60938 169.85938 177.08737 183.58737 189.35938 193.68837 197.30237 203.07437">, Sharjah</tspan></text>
<text fill="#454545" xml:space="preserve" transform="matrix(.74899998 0 0 .74899998 17.25 17.25)" font-size="13" font-family="TimesNewRomanPSMT"><tspan y="566" x="209.57813 212.82813 215.42813 218.67813 227.34914 236.50489 239.75489 246.25489 252.75489 256.3689 259.9829 266.4829 272.2549"> | CV builder</tspan></text>
<text xml:space="preserve" transform="matrix(.74899998 0 0 .74899998 17.25 17.25)" font-size="13" font-family="TimesNewRomanPSMT"><tspan y="595" x="50 57.033205 62.805204 68.5772 75.0772 81.5772 88.0772 91.6912 98.1912 104.6912 108.3052 114.0772 119.1342 122.3842 128.8842 133.94121 139.71321 146.21321">Technologies used:</tspan></text>
<text xml:space="preserve" transform="matrix(.74899998 0 0 .74899998 17.25 17.25)" font-size="13" font-family="TimesNewRomanPSMT"><tspan y="595" x="149.82721"> </tspan></text>
<text xml:space="preserve" transform="matrix(.74899998 0 0 .74899998 17.25 17.25)" font-size="13" font-family="TimesNewRomanPS" font-weight="bold"><tspan y="595" x="153.07813 162.46413 168.23613 174.73613 180.50814 184.83713 188.08713 194.58713 201.81513 205.06513 208.31513 217.70113 224.20113 231.42913 237.20113 241.53012 246.58713 249.83713 253.08713 265.35914 271.85914 279.08714 285.58714 292.08714 301.4731 310.1441 313.3941 316.6441 325.3151 331.8151 339.0431 344.5869 350.35893 355.41593 360.47294 363.72294 370.22294 377.45094 380.70094 383.95094 396.22294 402.72294 409.95094 416.45094 422.95094 429.45094 434.50794 440.27995 443.52995 446.77995 453.27995 460.50794 467.73594 470.27687 479.66285 485.2002 490.9722 495.3012 501.0732">React JS, Nodejs, MongoDB, Express JS, Mongoose, and Arcjet</tspan></text>
<text xml:space="preserve" transform="matrix(.74899998 0 0 .74899998 17.25 17.25)" font-size="13" font-family="TimesNewRomanPSMT"><tspan y="614" x="50 59.386 65.158008 71.658008 77.43001 81.04401 87.54401 94.04401 99.81601 106.31601 109.56601 115.33801 121.83801 128.33802 131.58802 141.70201 147.47402 151.08802 157.58802 161.20201 166.97402 170.58802 177.08802 182.86002 189.36002 192.61002 201.99602 207.76802 214.26802 217.51802 223.29003 229.79003 236.29003 239.90402 243.51802 249.29003 255.06203 258.67604 262.29005 268.79005 275.29005 280.34706 283.59706 286.84706 291.17607 297.67607 303.44807 309.94807 315.00508 318.61909 325.11909 331.61909 334.86909 341.36909 347.86909 351.11909 357.61909 364.11909 367.7331 374.2331 377.4831 381.8121 386.1411 392.6411 399.1411 402.75514 407.08415 412.85615 419.35615 425.85615 429.10615 434.87815 441.37815 447.87815 451.12815 457.62815 463.40016 469.17216 475.67216 480.00117 485.77317 492.27317 498.77317 502.02317 505.63719 511.40919 517.18118 523.68118 530.18118 536.68118 540.29519 546.79519 553.29519 556.9092 562.68118 567.73818 570.98818 574.23818 582.9092 589.4092 593.0232 596.6372 602.4092 608.9092 615.4092 619.73818 625.51016 629.12417 634.8961 641.3961 644.6461 654.0321 657.6461 661.26016 667.76016 671.01016 676.7821 680.0321 683.6461 689.4181 695.19009 705.3041 708.5541 712.1681">Developed and maintained web applications, focusing on both front-end and back-end technologies. Collaborated with a team to</tspan></text>
<text xml:space="preserve" transform="matrix(.74899998 0 0 .74899998 17.25 17.25)" font-size="13" font-family="TimesNewRomanPSMT"><tspan y="634" x="50 56.5 62.272 67.329 70.943 77.443 83.943 87.193 92.965007 99.465007 105.965007 109.215007 112.829 122.943 129.443 133.05699 138.829 148.943 154.715 161.215 164.829 168.079 174.579 179.636 185.408 189.737 192.987 196.601 203.101 206.715 212.487 216.816 221.14499 226.91699 232.689 238.461 243.518 246.768 253.268 258.325 261.93904 268.43904 274.93904 278.18904 286.86003 292.63203 298.40403 304.17604 307.79005 311.04005 316.81205 323.31205 329.81205 333.06205 343.17607 348.94807 355.44807 361.22007 367.72007 373.49208 379.99208 383.24208 388.29908 394.07109 398.4001 404.9001 410.6721 414.6919 419.0209 424.0779 427.69194 434.19194 439.96394 443.21394 446.82795 453.32795 459.82795 463.44197 469.21397 472.46397 481.84996 485.46397 489.07798 495.57798 498.82798 508.21397 514.714 521.214 526.98599 530.23599 533.85 538.907">design and implement user interfaces using React and managed server-side logic with Node.js.</tspan></text>
<text xml:space="preserve" transform="matrix(.74899998 0 0 .74899998 17.25 17.25)" font-size="13" font-family="TimesNewRomanPSMT"><tspan y="634" x="542.157"> </tspan></text>
<text xml:space="preserve" transform="matrix(.74899998 0 0 .74899998 17.25 17.25)" font-size="14" font-family="TimesNewRomanPS" font-weight="bold"><tspan y="672" x="50 59.338 67.122 72.568 76.46 84.244 90.46001 95.906009 101.352008 104.852008 111.852008 119.63601 131.298 135.19 142.974 148.42 153.082 159.298 166.298 170.96 177.96">Business adminstrator</tspan></text>
<text xml:space="preserve" transform="matrix(.74899998 0 0 .74899998 17.25 17.25)" font-size="13" font-family="TimesNewRomanPSMT"><tspan y="671" x="192.1875 197.2445 203.01651 209.51651 212.76651 219.26651 225.76651 232.26651">Jan 2025</tspan></text>
<text fill="#0a0a0a" xml:space="preserve" transform="matrix(.74899998 0 0 .74899998 17.25 17.25)" font-size="16" font-family="TimesNewRomanPSMT"><tspan y="672" x="246.78125">-</tspan></text>
<text xml:space="preserve" transform="matrix(.74899998 0 0 .74899998 17.25 17.25)" font-size="13" font-family="TimesNewRomanPSMT"><tspan y="671" x="260.10939 271.66639 277.4384 283.9384 287.1884 293.6884 300.1884 306.6884">May 2025</tspan></text>
<text fill="#454545" xml:space="preserve" transform="matrix(.74899998 0 0 .74899998 17.25 17.25)" font-size="13" font-family="TimesNewRomanPSMT"><tspan y="694" x="50 59.386 65.886 69.5 73.114 78.886 85.386 87.91455 97.30055 101.629558 107.40156 113.90156 117.15156 125.09456 135.20856 138.82256 143.15155 148.92356 152.53755 158.30956">United Arab Emirates</tspan></text>
<text fill="#454545" xml:space="preserve" transform="matrix(.74899998 0 0 .74899998 17.25 17.25)" font-size="13" font-family="TimesNewRomanPSMT"><tspan y="694" x="163.35938 166.60938 169.85938 177.08737 183.58737 189.35938 193.68837 197.30237 203.07437">, Sharjah</tspan></text>
<text fill="#454545" xml:space="preserve" transform="matrix(.74899998 0 0 .74899998 17.25 17.25)" font-size="13" font-family="TimesNewRomanPSMT"><tspan y="694" x="209.57813 212.82813 215.42813 218.67813 225.90613 230.23513 233.84912 243.96312 249.73513 258.40614 267.7921 276.4631 284.4061"> | PrimaCARE.</tspan></text>
<text xml:space="preserve" transform="matrix(.74899998 0 0 .74899998 17.25 17.25)" font-size="13" font-family="TimesNewRomanPSMT"><tspan y="723" x="50 57.228 63.728 70.228 76.728 83.228 87.557 91.171 96.943 103.443 106.693 113.193 118.965007 122.579 126.193 132.693 135.943 142.443 148.943 154.715 159.04399 164.816 168.43 172.04399 178.54399 185.04399 190.816 194.43 197.68 203.452 207.52344 211.85243 215.46643 221.23844 224.85243 230.62444 237.12444 242.89644 249.39644 252.64644 258.41844 262.03245 265.28245 272.51045 276.83946 280.45347 290.56748 296.33949 305.01048 314.39646 323.06745 331.01045 334.26045 337.87446 344.37446 347.62446 354.85246 361.35246 367.12446 371.45347 375.06748 380.83949 387.33949 390.58949 393.83949 403.22547 412.61146 420.55445 423.80445 427.05445 433.55445 440.05445 443.30445 453.41847 459.19047 465.69047 471.46247 477.96247 481.57649 488.07649 494.57649 497.82649 503.59849 510.09849 520.21249 523.8265 530.3265 533.9405 538.9975 542.6115 546.9405 552.71249 556.3265 559.9405 566.4405 572.21249 575.46249 579.0765 584.84848 589.90548 596.40548 601.46249 604.71249 610.48446 616.98446 623.48446 626.73446 631.79147 635.40548 639.73446 645.5064 651.2784 661.3924 665.0064 668.6204 675.1204 678.73446 685.23446">Supported daily operational efficiency at PrimaCARE in Sharjah, UAE, by managing administrative tasks and streamlining</tspan></text>
<text xml:space="preserve" transform="matrix(.74899998 0 0 .74899998 17.25 17.25)" font-size="13" font-family="TimesNewRomanPSMT"><tspan y="742" x="50 59.386 65.886 70.215007 76.715007 81.04401 84.658008 91.158008 100.54401 105.601009 108.851009 112.101009 120.772 127.272 133.772 138.101 144.601 148.215 154.715 160.487 164.101 169.873 176.373 179.623 189.737 195.509 201.281 204.895 208.509 215.009 221.509 226.56601 229.81601 233.06601 243.18001 248.95201 252.56601 259.066 262.68003 268.45204 272.06605 278.56605 284.33805 290.83805 294.08805 298.41706 304.18907 309.96107 316.46107 320.79008 327.29008 332.34709 335.59709 338.84709 344.61909 351.11909 357.61909 360.86909 365.1981 370.9701 376.7421 380.3561 383.97013 387.58415 391.19816 396.97016 400.58418 406.35618 412.85618 416.10618 421.87818 428.37818 438.4922 448.6062 455.1062 461.6062 465.2202 470.99223 476.76423 480.37825 483.99226 490.49226 496.99226 500.24226 506.74226 512.5142 516.12826 525.5142 531.2862 537.05819 543.55819 546.80819 553.30819 559.08016 565.58016 571.3521 575.6811 579.2951 589.4091 595.1811 601.6811 605.2951 610.3521">workflows. Coordinated meetings, maintained records, and facilitated communication between departments.</tspan></text>
<text fill="#454545" xml:space="preserve" transform="matrix(.74899998 0 0 .74899998 17.25 17.25)" font-size="16" font-family="TimesNewRomanPS" font-weight="bold"><tspan y="787" x="28 38.672 50.224004 61.776006 73.328 83.703128 94.37512 100.59912 113.04712">EDUCATION</tspan></text>
<text fill="#454545" xml:space="preserve" transform="matrix(.74899998 0 0 .74899998 17.25 17.25)" font-size="14" font-family="TimesNewRomanPS" font-weight="bold"><tspan y="823" x="50 57.784 62.446 69.446 77.23 85.01401 89.67601 96.67601 102.89201 110.67602 114.17602 121.96002 129.74402 133.63602 140.63602 146.85202 153.06803 158.51403 163.17603">Standford universty</tspan></text>
<text fill="#454545" xml:space="preserve" transform="matrix(.74899998 0 0 .74899998 17.25 17.25)" font-size="14" font-family="TimesNewRomanPS" font-weight="bold"><tspan y="823" x="170.1875 173.6875 187.6875 191.1875 200.5255 207.5255 213.7415 221.5255 227.7415 231.6335 238.6335 244.8495 248.7415 254.1875 257.6875 267.7955 274.0115 281.0115 286.96583 293.18183"> &#x2014; Bachelor's Degree</tspan></text>
<text fill="#454545" xml:space="preserve" transform="matrix(.74899998 0 0 .74899998 17.25 17.25)" font-size="14" font-family="TimesNewRomanPS" font-weight="bold"><tspan y="823" x="299.40626 302.90626 305.98625 309.48625 319.59425 326.59425 338.25624 346.04023 353.82423 358.4862 364.7022 370.6709 374.1709 381.9549 388.1709 392.0629 398.2789 406.0629 412.2789"> | Computer Science</tspan></text>
<text xml:space="preserve" transform="matrix(.74899998 0 0 .74899998 17.25 17.25)" font-size="13" font-family="TimesNewRomanPSMT"><tspan y="846" x="50 59.386 65.886 72.386 75.636 82.136 88.636 95.136">Nov 2022</tspan></text>
<text fill="#0a0a0a" xml:space="preserve" transform="matrix(.74899998 0 0 .74899998 17.25 17.25)" font-size="16" font-family="TimesNewRomanPSMT"><tspan y="847" x="111.640628">-</tspan></text>
<text xml:space="preserve" transform="matrix(.74899998 0 0 .74899998 17.25 17.25)" font-size="13" font-family="TimesNewRomanPSMT"><tspan y="846" x="126.96875 138.52576 144.29776 150.79776 154.04776 160.54776 167.04776 173.54776">May 2025</tspan></text>
<text xml:space="preserve" transform="matrix(.74899998 0 0 .74899998 17.25 17.25)" font-size="13" font-family="TimesNewRomanPSMT"><tspan y="869" x="50 59.386 63.715 69.487 75.987 82.487 88.259 91.873 97.645008 104.145008 107.395008 116.781009 120.395008 124.009 130.509 133.759 139.531 142.781 148.55301 154.32501 158.654 162.268 165.882 170.211 173.825 179.597 185.369 188.983 194.755 198.005 204.505 208.834 212.084 218.584 225.084 231.584 238.084 242.413 245.663 255.777 259.02699 264.79899 268.04899 277.43498 283.4414 292.1123 295.3623 301.8623 306.1913 309.4413 315.9413 319.1913 325.6913">Graduated with a certificate of honor &#x0026; a GPA of 3.65</tspan></text>
<text fill="#454545" xml:space="preserve" transform="matrix(.74899998 0 0 .74899998 17.25 17.25)" font-size="16" font-family="TimesNewRomanPS" font-weight="bold"><tspan y="911" x="28 36.896 49.344 55.568 66.240009 76.912">SKILLS</tspan></text>
<path transform="matrix(.74899998,0,0,.74899998,17.25,17.25)" d="M54 943C53.999998 943.26516 53.949247 943.5202 53.847749 943.7652 53.746255 944.01028 53.60174 944.22659 53.414209 944.4141 53.22667 944.6016 53.010389 944.74618 52.76536 944.84768 52.520334 944.94918 52.265214 944.99996 52 945 51.73478 944.99996 51.479658 944.94918 51.234628 944.84768 50.989599 944.74618 50.77332 944.6016 50.585786 944.4141 50.398244 944.22659 50.253728 944.01028 50.152235 943.76528 50.05074 943.5202 49.999998 943.26516 50 943 49.999998 942.7347 50.05074 942.47958 50.152235 942.2345 50.253728 941.98947 50.398244 941.7732 50.585786 941.5857 50.77332 941.39816 50.989599 941.2536 51.234628 941.15219 51.479658 941.0507 51.73478 941 52 941 52.265214 941 52.520334 941.0507 52.76536 941.1521 53.010389 941.2536 53.22667 941.39816 53.414209 941.5857 53.60174 941.7732 53.746255 941.98947 53.847749 942.2345 53.949247 942.47958 53.999998 942.7347 54 943Z"/>
<text xml:space="preserve" transform="matrix(.74899998 0 0 .74899998 17.25 17.25)" font-size="14" font-family="TimesNewRomanPSMT"><tspan y="947" x="69 78.338 84.554 90.770008 96.98601 100.878009 106.324008">ReactJS</tspan></text>
<text xml:space="preserve" transform="matrix(.74899998 0 0 .74899998 17.25 17.25)" font-size="14" font-family="TimesNewRomanPSMT"><tspan y="947" x="114.109378 117.609378 122.27138 129.27138 133.16338 140.16338"> (5/5)</tspan></text>
<path transform="matrix(.74899998,0,0,.74899998,17.25,17.25)" d="M400 943C399.99998 943.26516 399.9492 943.5202 399.8477 943.7652 399.7462 944.01028 399.60169 944.22659 399.41419 944.4141 399.22666 944.6016 399.01036 944.74618 398.76533 944.84768 398.5203 944.94918 398.2652 944.99996 398 945 397.73475 944.99996 397.4796 944.94918 397.2346 944.84768 396.98957 944.74618 396.7733 944.6016 396.58576 944.4141 396.3982 944.22659 396.25367 944.01028 396.1522 943.76528 396.05073 943.5202 395.99998 943.26516 396 943 395.99998 942.7347 396.05073 942.47958 396.1522 942.2345 396.25367 941.98947 396.3982 941.7732 396.58576 941.5857 396.7733 941.39816 396.98957 941.2536 397.2346 941.15219 397.4796 941.0507 397.73475 941 398 941 398.2652 941 398.5203 941.0507 398.76533 941.1521 399.01036 941.2536 399.22666 941.39816 399.41419 941.5857 399.60169 941.7732 399.7462 941.98947 399.84773 942.2345 399.9492 942.47958 399.99998 942.7347 400 943Z"/>
<text xml:space="preserve" transform="matrix(.74899998 0 0 .74899998 17.25 17.25)" font-size="14" font-family="TimesNewRomanPSMT"><tspan y="947" x="415 420.446 426.66203 433.66203 439.87803 447.66203 453.87803 458.54 462.432 469.432">JavaScript</tspan></text>
<text xml:space="preserve" transform="matrix(.74899998 0 0 .74899998 17.25 17.25)" font-size="14" font-family="TimesNewRomanPSMT"><tspan y="947" x="473.32814 476.82814 481.4901 488.4901 492.3821 499.3821"> (5/5)</tspan></text>
<path transform="matrix(.74899998,0,0,.74899998,17.25,17.25)" d="M54 984C53.999998 984.26516 53.949247 984.5202 53.847749 984.7652 53.746255 985.01028 53.60174 985.22659 53.414209 985.4141 53.22667 985.6016 53.010389 985.7461 52.76536 985.8476 52.520334 985.9491 52.265214 985.99996 52 986 51.73478 985.99996 51.479658 985.9491 51.234628 985.8476 50.989599 985.7461 50.77332 985.6016 50.585786 985.4141 50.398244 985.22659 50.253728 985.01028 50.152235 984.7652 50.05074 984.5202 49.999998 984.26516 50 984 49.999998 983.7347 50.05074 983.47958 50.152235 983.2345 50.253728 982.9895 50.398244 982.77328 50.585786 982.58578 50.77332 982.3982 50.989599 982.25369 51.234628 982.15219 51.479658 982.0507 51.73478 982 52 982 52.265214 982 52.520334 982.0507 52.76536 982.15219 53.010389 982.25369 53.22667 982.3982 53.414209 982.58578 53.60174 982.77328 53.746255 982.9895 53.847749 983.23458 53.949247 983.47958 53.999998 983.7347 54 984Z"/>
<text xml:space="preserve" transform="matrix(.74899998 0 0 .74899998 17.25 17.25)" font-size="14" font-family="TimesNewRomanPSMT"><tspan y="988" x="69 81.446 88.446 95.446 102.446 109.446 116.446">Mongodb</tspan></text>
<text xml:space="preserve" transform="matrix(.74899998 0 0 .74899998 17.25 17.25)" font-size="14" font-family="TimesNewRomanPSMT"><tspan y="988" x="123.453128 126.953128 131.61513 138.61513 142.50713 149.50713"> (4/5)</tspan></text>
<path transform="matrix(.74899998,0,0,.74899998,17.25,17.25)" d="M400 984C399.99998 984.26516 399.9492 984.5202 399.8477 984.7652 399.7462 985.01028 399.60169 985.22659 399.41419 985.4141 399.22666 985.6016 399.01036 985.7461 398.76533 985.8476 398.5203 985.9491 398.2652 985.99996 398 986 397.73475 985.99996 397.4796 985.9491 397.2346 985.8476 396.98957 985.7461 396.7733 985.6016 396.58576 985.4141 396.3982 985.22659 396.25367 985.01028 396.1522 984.7652 396.05073 984.5202 395.99998 984.26516 396 984 395.99998 983.7347 396.05073 983.47958 396.1522 983.2345 396.25367 982.9895 396.3982 982.77328 396.58576 982.58578 396.7733 982.3982 396.98957 982.25369 397.2346 982.15219 397.4796 982.0507 397.73475 982 398 982 398.2652 982 398.5203 982.0507 398.76533 982.15219 399.01036 982.25369 399.22666 982.3982 399.41419 982.58578 399.60169 982.77328 399.7462 982.9895 399.84773 983.23458 399.9492 983.47958 399.99998 983.7347 400 984Z"/>
<text xml:space="preserve" transform="matrix(.74899998 0 0 .74899998 17.25 17.25)" font-size="14" font-family="TimesNewRomanPSMT"><tspan y="988" x="415 425.108 432.108 439.108 445.324 450.77003">NodeJS</tspan></text>
<text xml:space="preserve" transform="matrix(.74899998 0 0 .74899998 17.25 17.25)" font-size="14" font-family="TimesNewRomanPSMT"><tspan y="988" x="458.5625 462.0625 466.7245 473.7245 477.6165 484.6165"> (3/5)</tspan></text>
</g>
</svg>
